<?xml version="1.0" encoding="utf-8"?>
<!-- Generator: Adobe Illustrator 22.1.0, SVG Export Plug-In . SVG Version: 6.00 Build 0)  -->
<svg version="1.1" id="Layer_1" xmlns="http://www.w3.org/2000/svg" xmlns:xlink="http://www.w3.org/1999/xlink" x="0px" y="0px"
	 viewBox="0 0 64 64" style="enable-background:new 0 0 64 64;" xml:space="preserve">
<style type="text/css">
	.st0{clip-path:url(#SVGID_2_);fill:url(#SVGID_3_);}
	.st1{clip-path:url(#SVGID_5_);fill:url(#SVGID_6_);}
	.st2{clip-path:url(#SVGID_8_);fill:url(#SVGID_9_);}
	.st3{clip-path:url(#SVGID_11_);fill:url(#SVGID_12_);}
	.st4{clip-path:url(#SVGID_14_);fill:url(#SVGID_15_);}
	.st5{clip-path:url(#SVGID_17_);fill:url(#SVGID_18_);}
	.st6{clip-path:url(#SVGID_20_);fill:url(#SVGID_21_);}
	.st7{clip-path:url(#SVGID_23_);fill:url(#SVGID_24_);}
	.st8{clip-path:url(#SVGID_26_);fill:url(#SVGID_27_);}
	.st9{clip-path:url(#SVGID_29_);fill:url(#SVGID_30_);}
</style>
<g>
	<defs>
		<rect id="SVGID_1_" x="24" y="20" width="16" height="27"/>
	</defs>
	<clipPath id="SVGID_2_">
		<use xlink:href="#SVGID_1_"  style="overflow:visible;"/>
	</clipPath>
	<linearGradient id="SVGID_3_" gradientUnits="userSpaceOnUse" x1="-9.094947e-13" y1="-9.094947e-13" x2="64" y2="64">
		<stop  offset="0" style="stop-color:#51FF8F"/>
		<stop  offset="1" style="stop-color:#008D83"/>
	</linearGradient>
	<rect class="st0" width="64" height="64"/>
</g>
<g>
	<defs>
		<path id="SVGID_4_" d="M32,18L32,18c-4.4,0-8-3.6-8-8v0c0-4.4,3.6-8,8-8h0c4.4,0,8,3.6,8,8v0C40,14.4,36.4,18,32,18z"/>
	</defs>
	<clipPath id="SVGID_5_">
		<use xlink:href="#SVGID_4_"  style="overflow:visible;"/>
	</clipPath>
	<linearGradient id="SVGID_6_" gradientUnits="userSpaceOnUse" x1="-9.094947e-13" y1="-9.094947e-13" x2="64" y2="64">
		<stop  offset="0" style="stop-color:#51FF8F"/>
		<stop  offset="1" style="stop-color:#008D83"/>
	</linearGradient>
	<rect class="st1" width="64" height="64"/>
</g>
<g>
	<defs>
		<path id="SVGID_7_" d="M28,62h-2c-1.1,0-2-0.9-2-2V43c0-1.1,0.9-2,2-2h2c1.1,0,2,0.9,2,2v17C30,61.1,29.1,62,28,62z"/>
	</defs>
	<clipPath id="SVGID_8_">
		<use xlink:href="#SVGID_7_"  style="overflow:visible;"/>
	</clipPath>
	<linearGradient id="SVGID_9_" gradientUnits="userSpaceOnUse" x1="-9.094947e-13" y1="-9.094947e-13" x2="64" y2="64">
		<stop  offset="0" style="stop-color:#51FF8F"/>
		<stop  offset="1" style="stop-color:#008D83"/>
	</linearGradient>
	<rect class="st2" width="64" height="64"/>
</g>
<g>
	<defs>
		<path id="SVGID_10_" d="M38,62h-2c-1.1,0-2-0.9-2-2V44c0-1.1,0.9-2,2-2h2c1.1,0,2,0.9,2,2v16C40,61.1,39.1,62,38,62z"/>
	</defs>
	<clipPath id="SVGID_11_">
		<use xlink:href="#SVGID_10_"  style="overflow:visible;"/>
	</clipPath>
	<linearGradient id="SVGID_12_" gradientUnits="userSpaceOnUse" x1="-9.094947e-13" y1="-9.094947e-13" x2="64" y2="64">
		<stop  offset="0" style="stop-color:#51FF8F"/>
		<stop  offset="1" style="stop-color:#008D83"/>
	</linearGradient>
	<rect class="st3" width="64" height="64"/>
</g>
<g>
	<defs>
		<path id="SVGID_13_" d="M46,35h-2c-1.1,0-2-0.9-2-2V22c0-1.1,0.9-2,2-2h2c1.1,0,2,0.9,2,2v11C48,34.1,47.1,35,46,35z"/>
	</defs>
	<clipPath id="SVGID_14_">
		<use xlink:href="#SVGID_13_"  style="overflow:visible;"/>
	</clipPath>
	<linearGradient id="SVGID_15_" gradientUnits="userSpaceOnUse" x1="-9.094947e-13" y1="-9.094947e-13" x2="64" y2="64">
		<stop  offset="0" style="stop-color:#51FF8F"/>
		<stop  offset="1" style="stop-color:#008D83"/>
	</linearGradient>
	<rect class="st4" width="64" height="64"/>
</g>
<g>
	<defs>
		<path id="SVGID_16_" d="M20,35h-2c-1.1,0-2-0.9-2-2V22c0-1.1,0.9-2,2-2h2c1.1,0,2,0.9,2,2v11C22,34.1,21.1,35,20,35z"/>
	</defs>
	<clipPath id="SVGID_17_">
		<use xlink:href="#SVGID_16_"  style="overflow:visible;"/>
	</clipPath>
	<linearGradient id="SVGID_18_" gradientUnits="userSpaceOnUse" x1="-9.094947e-13" y1="-9.094947e-13" x2="64" y2="64">
		<stop  offset="0" style="stop-color:#51FF8F"/>
		<stop  offset="1" style="stop-color:#008D83"/>
	</linearGradient>
	<rect class="st5" width="64" height="64"/>
</g>
<g>
	<defs>
		<path id="SVGID_19_" d="M16,24v-2c0-1.1,0.9-2,2-2h28c1.1,0,2,0.9,2,2v2c0,1.1-0.9,2-2,2H18C16.9,26,16,25.1,16,24z"/>
	</defs>
	<clipPath id="SVGID_20_">
		<use xlink:href="#SVGID_19_"  style="overflow:visible;"/>
	</clipPath>
	<linearGradient id="SVGID_21_" gradientUnits="userSpaceOnUse" x1="-9.094947e-13" y1="-9.094947e-13" x2="64" y2="64">
		<stop  offset="0" style="stop-color:#51FF8F"/>
		<stop  offset="1" style="stop-color:#008D83"/>
	</linearGradient>
	<rect class="st6" width="64" height="64"/>
</g>
<g>
	<defs>
		<path id="SVGID_22_" d="M34.3,47v2h-0.1v0c0-0.9-0.9-1.6-2.1-1.6h0c-1.2,0-2.1,0.7-2.1,1.6v0h-0.1v-2"/>
	</defs>
	<clipPath id="SVGID_23_">
		<use xlink:href="#SVGID_22_"  style="overflow:visible;"/>
	</clipPath>
	<linearGradient id="SVGID_24_" gradientUnits="userSpaceOnUse" x1="-9.094947e-13" y1="-9.094947e-13" x2="64" y2="64">
		<stop  offset="0" style="stop-color:#51FF8F"/>
		<stop  offset="1" style="stop-color:#008D83"/>
	</linearGradient>
	<rect class="st7" width="64" height="64"/>
</g>
<g>
	<defs>
		<path id="SVGID_25_" d="M42,26v1l-0.1,0v0c0-0.4-0.4-0.8-0.9-0.8l0,0c-0.5,0-0.9,0.4-0.9,0.8v0L40,27v-1"/>
	</defs>
	<clipPath id="SVGID_26_">
		<use xlink:href="#SVGID_25_"  style="overflow:visible;"/>
	</clipPath>
	<linearGradient id="SVGID_27_" gradientUnits="userSpaceOnUse" x1="-9.094947e-13" y1="-9.094947e-13" x2="64" y2="64">
		<stop  offset="0" style="stop-color:#51FF8F"/>
		<stop  offset="1" style="stop-color:#008D83"/>
	</linearGradient>
	<rect class="st8" width="64" height="64"/>
</g>
<g>
	<defs>
		<path id="SVGID_28_" d="M24,26v1l-0.1,0v0c0-0.4-0.4-0.8-0.9-0.8l0,0c-0.5,0-0.9,0.4-0.9,0.8v0L22,27v-1"/>
	</defs>
	<clipPath id="SVGID_29_">
		<use xlink:href="#SVGID_28_"  style="overflow:visible;"/>
	</clipPath>
	<linearGradient id="SVGID_30_" gradientUnits="userSpaceOnUse" x1="-9.094947e-13" y1="-9.094947e-13" x2="64" y2="64">
		<stop  offset="0" style="stop-color:#51FF8F"/>
		<stop  offset="1" style="stop-color:#008D83"/>
	</linearGradient>
	<rect x="0" y="0" class="st9" width="64" height="64"/>
</g>
</svg>
