<?xml version="1.0" encoding="utf-8"?>
<!-- Generator: Adobe Illustrator 22.1.0, SVG Export Plug-In . SVG Version: 6.00 Build 0)  -->
<svg version="1.1" id="Layer_1" xmlns="http://www.w3.org/2000/svg" xmlns:xlink="http://www.w3.org/1999/xlink" x="0px" y="0px"
	 viewBox="0 0 64 64" style="enable-background:new 0 0 64 64;" xml:space="preserve">
<style type="text/css">
	.st0{clip-path:url(#SVGID_2_);fill:url(#SVGID_3_);}
	.st1{clip-path:url(#SVGID_5_);fill:url(#SVGID_6_);}
	.st2{clip-path:url(#SVGID_8_);fill:url(#SVGID_9_);}
</style>
<g>
	<defs>
		<path id="SVGID_1_" d="M4,16.9V9.1C4,8,5,7,6.1,7h51.7C59,7,60,8,60,9.1v7.7c0,1.2-1,2.1-2.1,2.1H6.1C5,19,4,18,4,16.9z"/>
	</defs>
	<clipPath id="SVGID_2_">
		<use xlink:href="#SVGID_1_"  style="overflow:visible;"/>
	</clipPath>
	<linearGradient id="SVGID_3_" gradientUnits="userSpaceOnUse" x1="-9.094947e-13" y1="-9.094947e-13" x2="64" y2="64">
		<stop  offset="0" style="stop-color:#51FF8F"/>
		<stop  offset="1" style="stop-color:#008D83"/>
	</linearGradient>
	<rect class="st0" width="64" height="64"/>
</g>
<g>
	<defs>
		<path id="SVGID_4_" d="M4,35.9v-7.7C4,27,5,26,6.1,26h51.7c1.2,0,2.1,1,2.1,2.1v7.7c0,1.2-1,2.1-2.1,2.1H6.1C5,38,4,37,4,35.9z"/>
	</defs>
	<clipPath id="SVGID_5_">
		<use xlink:href="#SVGID_4_"  style="overflow:visible;"/>
	</clipPath>
	<linearGradient id="SVGID_6_" gradientUnits="userSpaceOnUse" x1="-9.094947e-13" y1="-9.094947e-13" x2="64" y2="64">
		<stop  offset="0" style="stop-color:#51FF8F"/>
		<stop  offset="1" style="stop-color:#008D83"/>
	</linearGradient>
	<rect class="st1" width="64" height="64"/>
</g>
<g>
	<defs>
		<path id="SVGID_7_" d="M4,54.9v-7.7C4,46,5,45,6.1,45h51.7c1.2,0,2.1,1,2.1,2.1v7.7c0,1.2-1,2.1-2.1,2.1H6.1C5,57,4,56,4,54.9z"/>
	</defs>
	<clipPath id="SVGID_8_">
		<use xlink:href="#SVGID_7_"  style="overflow:visible;"/>
	</clipPath>
	<linearGradient id="SVGID_9_" gradientUnits="userSpaceOnUse" x1="-9.094947e-13" y1="-9.094947e-13" x2="64" y2="64">
		<stop  offset="0" style="stop-color:#51FF8F"/>
		<stop  offset="1" style="stop-color:#008D83"/>
	</linearGradient>
	<rect class="st2" width="64" height="64"/>
</g>
</svg>
