<?xml version="1.0" encoding="utf-8"?>
<!-- Generator: Adobe Illustrator 22.1.0, SVG Export Plug-In . SVG Version: 6.00 Build 0)  -->
<svg version="1.1" id="Layer_1" xmlns="http://www.w3.org/2000/svg" xmlns:xlink="http://www.w3.org/1999/xlink" x="0px" y="0px"
	 viewBox="0 0 64 64" style="enable-background:new 0 0 64 64;" xml:space="preserve">
<style type="text/css">
	.st0{clip-path:url(#SVGID_2_);fill:url(#SVGID_3_);}
	.st1{clip-path:url(#SVGID_5_);fill:url(#SVGID_6_);}
	.st2{clip-path:url(#SVGID_5_);fill:url(#SVGID_7_);}
	.st3{clip-path:url(#SVGID_5_);fill:url(#SVGID_8_);}
	.st4{clip-path:url(#SVGID_5_);fill:url(#SVGID_9_);}
	.st5{clip-path:url(#SVGID_11_);fill:url(#SVGID_12_);}
	.st6{clip-path:url(#SVGID_11_);fill:url(#SVGID_13_);}
</style>
<g>
	<defs>
		<path id="SVGID_1_" d="M56.1,60H7.9C6.3,60,5,58.7,5,57.1V17.9C5,16.3,6.3,15,7.9,15h48.3c1.6,0,2.9,1.3,2.9,2.9v39.3
			C59,58.7,57.7,60,56.1,60z"/>
	</defs>
	<clipPath id="SVGID_2_">
		<use xlink:href="#SVGID_1_"  style="overflow:visible;"/>
	</clipPath>
	<linearGradient id="SVGID_3_" gradientUnits="userSpaceOnUse" x1="-9.094947e-13" y1="-9.094947e-13" x2="64" y2="64">
		<stop  offset="0" style="stop-color:#51FF8F"/>
		<stop  offset="1" style="stop-color:#008D83"/>
	</linearGradient>
	<path class="st0" d="M0,0v64h64V0H0z M49.6,41.9c0,0.6-0.5,1.1-1.1,1.1H30.6v6c0,0.4-0.5,0.6-0.8,0.4l-15.6-11
		c-0.3-0.2-0.3-0.6,0-0.8l15.6-11c0.3-0.2,0.8,0,0.8,0.4v7h17.9c0.6,0,1.1,0.5,1.1,1.1V41.9z"/>
</g>
<g>
	<defs>
		<path id="SVGID_4_" d="M17,6L17,6c-3.3,0-6,2.7-6,6v3h12v-3C23,8.7,20.3,6,17,6z"/>
	</defs>
	<clipPath id="SVGID_5_">
		<use xlink:href="#SVGID_4_"  style="overflow:visible;"/>
	</clipPath>
	<linearGradient id="SVGID_6_" gradientUnits="userSpaceOnUse" x1="-9.094947e-13" y1="-9.094947e-13" x2="64" y2="64">
		<stop  offset="0" style="stop-color:#51FF8F"/>
		<stop  offset="1" style="stop-color:#008D83"/>
	</linearGradient>
	<path class="st1" d="M0,0v64h64V0H0z M49.6,41.9c0,0.6-0.5,1.1-1.1,1.1H30.6v6c0,0.4-0.5,0.6-0.8,0.4l-15.6-11
		c-0.3-0.2-0.3-0.6,0-0.8l15.6-11c0.3-0.2,0.8,0,0.8,0.4v7h17.9c0.6,0,1.1,0.5,1.1,1.1V41.9z"/>
	<linearGradient id="SVGID_7_" gradientUnits="userSpaceOnUse" x1="20.8112" y1="30.9803" x2="34.8506" y2="45.0197">
		<stop  offset="0" style="stop-color:#51FF8F"/>
		<stop  offset="1" style="stop-color:#008D83"/>
	</linearGradient>
	<path class="st2" d="M27.6,41.9v-6.9c0-0.6,0.5-1.1,1.1-1.1h1.9v-7c0-0.4-0.5-0.6-0.8-0.4l-15.6,11c-0.3,0.2-0.3,0.6,0,0.8l15.6,11
		c0.3,0.2,0.8,0,0.8-0.4v-6h-1.9C28.1,43,27.6,42.5,27.6,41.9z"/>
	<linearGradient id="SVGID_8_" gradientUnits="userSpaceOnUse" x1="31.1924" y1="31.0612" x2="46.07" y2="45.9388">
		<stop  offset="0" style="stop-color:#51FF8F"/>
		<stop  offset="1" style="stop-color:#008D83"/>
	</linearGradient>
	<path class="st3" d="M48.6,34H30.6h-1.9c-0.6,0-1.1,0.5-1.1,1.1v6.9c0,0.6,0.5,1.1,1.1,1.1h1.9h17.9c0.6,0,1.1-0.5,1.1-1.1v-6.9
		C49.6,34.5,49.2,34,48.6,34z"/>
	<linearGradient id="SVGID_9_" gradientUnits="userSpaceOnUse" x1="20.8112" y1="30.9803" x2="34.8506" y2="45.0197">
		<stop  offset="0" style="stop-color:#51FF8F"/>
		<stop  offset="1" style="stop-color:#008D83"/>
	</linearGradient>
	<path class="st4" d="M27.6,41.9v-6.9c0-0.6,0.5-1.1,1.1-1.1h1.9v-7c0-0.4-0.5-0.6-0.8-0.4l-15.6,11c-0.3,0.2-0.3,0.6,0,0.8l15.6,11
		c0.3,0.2,0.8,0,0.8-0.4v-6h-1.9C28.1,43,27.6,42.5,27.6,41.9z"/>
</g>
<g>
	<defs>
		<path id="SVGID_10_" d="M47,6L47,6c-3.3,0-6,2.7-6,6v3h12v-3C53,8.7,50.3,6,47,6z"/>
	</defs>
	<clipPath id="SVGID_11_">
		<use xlink:href="#SVGID_10_"  style="overflow:visible;"/>
	</clipPath>
	<linearGradient id="SVGID_12_" gradientUnits="userSpaceOnUse" x1="-9.094947e-13" y1="-9.094947e-13" x2="64" y2="64">
		<stop  offset="0" style="stop-color:#51FF8F"/>
		<stop  offset="1" style="stop-color:#008D83"/>
	</linearGradient>
	<path class="st5" d="M0,0v64h64V0H0z M49.6,41.9c0,0.6-0.5,1.1-1.1,1.1H30.6v6c0,0.4-0.5,0.6-0.8,0.4l-15.6-11
		c-0.3-0.2-0.3-0.6,0-0.8l15.6-11c0.3-0.2,0.8,0,0.8,0.4v7h17.9c0.6,0,1.1,0.5,1.1,1.1V41.9z"/>
	<linearGradient id="SVGID_13_" gradientUnits="userSpaceOnUse" x1="31.1924" y1="31.0612" x2="46.07" y2="45.9388">
		<stop  offset="0" style="stop-color:#51FF8F"/>
		<stop  offset="1" style="stop-color:#008D83"/>
	</linearGradient>
	<path class="st6" d="M48.6,34H30.6h-1.9c-0.6,0-1.1,0.5-1.1,1.1v6.9c0,0.6,0.5,1.1,1.1,1.1h1.9h17.9c0.6,0,1.1-0.5,1.1-1.1v-6.9
		C49.6,34.5,49.2,34,48.6,34z"/>
</g>
</svg>
