<?xml version="1.0" encoding="utf-8"?>
<!-- Generator: Adobe Illustrator 22.1.0, SVG Export Plug-In . SVG Version: 6.00 Build 0)  -->
<svg version="1.1" id="Layer_1" xmlns="http://www.w3.org/2000/svg" xmlns:xlink="http://www.w3.org/1999/xlink" x="0px" y="0px"
	 viewBox="0 0 64 64" style="enable-background:new 0 0 64 64;" xml:space="preserve">
<style type="text/css">
	.st0{clip-path:url(#SVGID_2_);fill:url(#SVGID_3_);}
	.st1{clip-path:url(#SVGID_5_);fill:url(#SVGID_6_);}
	.st2{clip-path:url(#SVGID_8_);fill:url(#SVGID_9_);}
	.st3{clip-path:url(#SVGID_11_);fill:url(#SVGID_12_);}
	.st4{clip-path:url(#SVGID_14_);fill:url(#SVGID_15_);}
	.st5{clip-path:url(#SVGID_17_);fill:url(#SVGID_18_);}
	.st6{clip-path:url(#SVGID_20_);fill:url(#SVGID_21_);}
	.st7{clip-path:url(#SVGID_23_);fill:url(#SVGID_24_);}
	.st8{clip-path:url(#SVGID_26_);fill:url(#SVGID_27_);}
	.st9{clip-path:url(#SVGID_29_);fill:url(#SVGID_30_);}
</style>
<g>
	<defs>
		<rect id="SVGID_1_" x="28" y="26" width="8" height="13.5"/>
	</defs>
	<clipPath id="SVGID_2_">
		<use xlink:href="#SVGID_1_"  style="overflow:visible;"/>
	</clipPath>
	<linearGradient id="SVGID_3_" gradientUnits="userSpaceOnUse" x1="16" y1="16" x2="48" y2="48">
		<stop  offset="0" style="stop-color:#51FF8F"/>
		<stop  offset="1" style="stop-color:#008D83"/>
	</linearGradient>
	<rect x="16" y="16" class="st0" width="32" height="32"/>
</g>
<g>
	<defs>
		<path id="SVGID_4_" d="M32,25L32,25c-2.2,0-4-1.8-4-4v0c0-2.2,1.8-4,4-4h0c2.2,0,4,1.8,4,4v0C36,23.2,34.2,25,32,25z"/>
	</defs>
	<clipPath id="SVGID_5_">
		<use xlink:href="#SVGID_4_"  style="overflow:visible;"/>
	</clipPath>
	<linearGradient id="SVGID_6_" gradientUnits="userSpaceOnUse" x1="16" y1="16" x2="48" y2="48">
		<stop  offset="0" style="stop-color:#51FF8F"/>
		<stop  offset="1" style="stop-color:#008D83"/>
	</linearGradient>
	<rect x="16" y="16" class="st1" width="32" height="32"/>
</g>
<g>
	<defs>
		<path id="SVGID_7_" d="M30,47h-1c-0.6,0-1-0.4-1-1v-8.5c0-0.6,0.4-1,1-1h1c0.6,0,1,0.4,1,1V46C31,46.6,30.6,47,30,47z"/>
	</defs>
	<clipPath id="SVGID_8_">
		<use xlink:href="#SVGID_7_"  style="overflow:visible;"/>
	</clipPath>
	<linearGradient id="SVGID_9_" gradientUnits="userSpaceOnUse" x1="16" y1="16" x2="48" y2="48">
		<stop  offset="0" style="stop-color:#51FF8F"/>
		<stop  offset="1" style="stop-color:#008D83"/>
	</linearGradient>
	<rect x="16" y="16" class="st2" width="32" height="32"/>
</g>
<g>
	<defs>
		<path id="SVGID_10_" d="M35,47h-1c-0.6,0-1-0.4-1-1v-8c0-0.6,0.4-1,1-1h1c0.6,0,1,0.4,1,1v8C36,46.6,35.6,47,35,47z"/>
	</defs>
	<clipPath id="SVGID_11_">
		<use xlink:href="#SVGID_10_"  style="overflow:visible;"/>
	</clipPath>
	<linearGradient id="SVGID_12_" gradientUnits="userSpaceOnUse" x1="16" y1="16" x2="48" y2="48">
		<stop  offset="0" style="stop-color:#51FF8F"/>
		<stop  offset="1" style="stop-color:#008D83"/>
	</linearGradient>
	<rect x="16" y="16" class="st3" width="32" height="32"/>
</g>
<g>
	<defs>
		<path id="SVGID_13_" d="M39,33.5h-1c-0.6,0-1-0.4-1-1V27c0-0.6,0.4-1,1-1h1c0.6,0,1,0.4,1,1v5.5C40,33.1,39.6,33.5,39,33.5z"/>
	</defs>
	<clipPath id="SVGID_14_">
		<use xlink:href="#SVGID_13_"  style="overflow:visible;"/>
	</clipPath>
	<linearGradient id="SVGID_15_" gradientUnits="userSpaceOnUse" x1="16" y1="16" x2="48" y2="48">
		<stop  offset="0" style="stop-color:#51FF8F"/>
		<stop  offset="1" style="stop-color:#008D83"/>
	</linearGradient>
	<rect x="16" y="16" class="st4" width="32" height="32"/>
</g>
<g>
	<defs>
		<path id="SVGID_16_" d="M26,33.5h-1c-0.6,0-1-0.4-1-1V27c0-0.6,0.4-1,1-1h1c0.6,0,1,0.4,1,1v5.5C27,33.1,26.6,33.5,26,33.5z"/>
	</defs>
	<clipPath id="SVGID_17_">
		<use xlink:href="#SVGID_16_"  style="overflow:visible;"/>
	</clipPath>
	<linearGradient id="SVGID_18_" gradientUnits="userSpaceOnUse" x1="16" y1="16" x2="48" y2="48">
		<stop  offset="0" style="stop-color:#51FF8F"/>
		<stop  offset="1" style="stop-color:#008D83"/>
	</linearGradient>
	<rect x="16" y="16" class="st5" width="32" height="32"/>
</g>
<g>
	<defs>
		<path id="SVGID_19_" d="M24,28v-1c0-0.6,0.4-1,1-1h14c0.6,0,1,0.4,1,1v1c0,0.6-0.4,1-1,1H25C24.4,29,24,28.6,24,28z"/>
	</defs>
	<clipPath id="SVGID_20_">
		<use xlink:href="#SVGID_19_"  style="overflow:visible;"/>
	</clipPath>
	<linearGradient id="SVGID_21_" gradientUnits="userSpaceOnUse" x1="16" y1="16" x2="48" y2="48">
		<stop  offset="0" style="stop-color:#51FF8F"/>
		<stop  offset="1" style="stop-color:#008D83"/>
	</linearGradient>
	<rect x="16" y="16" class="st6" width="32" height="32"/>
</g>
<g>
	<defs>
		<path id="SVGID_22_" d="M33.1,39.5v1h-0.1l0,0c0-0.4-0.5-0.8-1.1-0.8h0c-0.6,0-1.1,0.4-1.1,0.8l0,0h-0.1v-1"/>
	</defs>
	<clipPath id="SVGID_23_">
		<use xlink:href="#SVGID_22_"  style="overflow:visible;"/>
	</clipPath>
	<linearGradient id="SVGID_24_" gradientUnits="userSpaceOnUse" x1="16" y1="16" x2="48" y2="48">
		<stop  offset="0" style="stop-color:#51FF8F"/>
		<stop  offset="1" style="stop-color:#008D83"/>
	</linearGradient>
	<rect x="16" y="16" class="st7" width="32" height="32"/>
</g>
<g>
	<defs>
		<path id="SVGID_25_" d="M37,29v0.5h0v0c0-0.2-0.2-0.4-0.5-0.4l0,0c-0.3,0-0.5,0.2-0.5,0.4v0h0V29"/>
	</defs>
	<clipPath id="SVGID_26_">
		<use xlink:href="#SVGID_25_"  style="overflow:visible;"/>
	</clipPath>
	<linearGradient id="SVGID_27_" gradientUnits="userSpaceOnUse" x1="16" y1="16" x2="48" y2="48">
		<stop  offset="0" style="stop-color:#51FF8F"/>
		<stop  offset="1" style="stop-color:#008D83"/>
	</linearGradient>
	<rect x="16" y="16" class="st8" width="32" height="32"/>
</g>
<g>
	<defs>
		<path id="SVGID_28_" d="M28,29v0.5h0v0c0-0.2-0.2-0.4-0.5-0.4l0,0c-0.3,0-0.5,0.2-0.5,0.4v0h0V29"/>
	</defs>
	<clipPath id="SVGID_29_">
		<use xlink:href="#SVGID_28_"  style="overflow:visible;"/>
	</clipPath>
	<linearGradient id="SVGID_30_" gradientUnits="userSpaceOnUse" x1="16" y1="16" x2="48" y2="48">
		<stop  offset="0" style="stop-color:#51FF8F"/>
		<stop  offset="1" style="stop-color:#008D83"/>
	</linearGradient>
	<rect x="16" y="16" class="st9" width="32" height="32"/>
</g>
</svg>
