<?xml version="1.0" encoding="utf-8"?>
<!-- Generator: Adobe Illustrator 22.1.0, SVG Export Plug-In . SVG Version: 6.00 Build 0)  -->
<svg version="1.1" id="Layer_1" xmlns="http://www.w3.org/2000/svg" xmlns:xlink="http://www.w3.org/1999/xlink" x="0px" y="0px"
	 viewBox="0 0 64 64" style="enable-background:new 0 0 64 64;" xml:space="preserve">
<style type="text/css">
	.st0{clip-path:url(#SVGID_2_);fill:url(#SVGID_3_);}
	.st1{clip-path:url(#SVGID_5_);fill:url(#SVGID_6_);}
	.st2{clip-path:url(#SVGID_8_);fill:url(#SVGID_9_);}
	.st3{display:none;}
	.st4{display:inline;}
	.st5{display:none;fill:none;stroke:#000000;stroke-width:4;stroke-linecap:round;stroke-linejoin:round;stroke-miterlimit:10;}
</style>
<g>
	<defs>
		<path id="SVGID_1_" d="M60,4l0,56L4,60L4,4H60 M60,0H4C1.8,0,0,1.8,0,4v56c0,2.2,1.8,4,4,4h56c2.2,0,4-1.8,4-4V4
			C64,1.8,62.2,0,60,0L60,0z"/>
	</defs>
	<clipPath id="SVGID_2_">
		<use xlink:href="#SVGID_1_"  style="overflow:visible;"/>
	</clipPath>
	<linearGradient id="SVGID_3_" gradientUnits="userSpaceOnUse" x1="-9.094947e-13" y1="-9.094947e-13" x2="64" y2="64">
		<stop  offset="0" style="stop-color:#51FF8F"/>
		<stop  offset="1" style="stop-color:#008D83"/>
	</linearGradient>
	<rect class="st0" width="64" height="64"/>
</g>
<g>
	<defs>
		<path id="SVGID_4_" d="M40,63c-0.6,0-1.3-0.3-1.7-0.9L7.4,16l-3.8,5.2c-0.7,0.9-1.9,1.1-2.8,0.4c-0.9-0.7-1.1-1.9-0.4-2.8l5.5-7.5
			c0.4-0.5,1-0.8,1.7-0.8c0.7,0,1.3,0.3,1.6,0.9l32.5,48.5c0.6,0.9,0.4,2.2-0.5,2.8C40.8,62.9,40.4,63,40,63z"/>
	</defs>
	<clipPath id="SVGID_5_">
		<use xlink:href="#SVGID_4_"  style="overflow:visible;"/>
	</clipPath>
	<linearGradient id="SVGID_6_" gradientUnits="userSpaceOnUse" x1="-9.094947e-13" y1="-9.094947e-13" x2="64" y2="64">
		<stop  offset="0" style="stop-color:#51FF8F"/>
		<stop  offset="1" style="stop-color:#008D83"/>
	</linearGradient>
	<rect class="st1" width="64" height="64"/>
</g>
<g>
	<defs>
		<path id="SVGID_7_" d="M32,51c-0.9,0-1.8-0.6-2-1.6l-4-19c-0.1-0.7,0.1-1.3,0.5-1.8l14.5-14.5c0.2-0.2,0.4-0.3,0.6-0.4l19.5-8.5
			c1-0.4,2.2,0,2.6,1c0.4,1,0,2.2-1,2.6l-19.2,8.3L30.2,30.6L34,48.6c0.2,1.1-0.5,2.1-1.5,2.4C32.3,51,32.1,51,32,51z"/>
	</defs>
	<clipPath id="SVGID_8_">
		<use xlink:href="#SVGID_7_"  style="overflow:visible;"/>
	</clipPath>
	<linearGradient id="SVGID_9_" gradientUnits="userSpaceOnUse" x1="-9.094947e-13" y1="-9.094947e-13" x2="64" y2="64">
		<stop  offset="0" style="stop-color:#51FF8F"/>
		<stop  offset="1" style="stop-color:#008D83"/>
	</linearGradient>
	<rect class="st2" width="64" height="64"/>
</g>
<g class="st3">
	<path class="st4" d="M60-76l0,56L4-20l0-56H60 M60-80H4c-2.2,0-4,1.8-4,4v56c0,2.2,1.8,4,4,4h56c2.2,0,4-1.8,4-4v-56
		C64-78.2,62.2-80,60-80L60-80z"/>
</g>
<polyline class="st5" points="40,-19 7.5,-67.5 2,-60 "/>
<polyline class="st5" points="32,-31 28,-50 42.5,-64.5 62,-73 "/>
</svg>
