<?xml version="1.0" encoding="utf-8"?>
<!-- Generator: Adobe Illustrator 22.1.0, SVG Export Plug-In . SVG Version: 6.00 Build 0)  -->
<svg version="1.1" id="Layer_1" xmlns="http://www.w3.org/2000/svg" xmlns:xlink="http://www.w3.org/1999/xlink" x="0px" y="0px"
	 viewBox="0 0 64 64" style="enable-background:new 0 0 64 64;" xml:space="preserve">
<style type="text/css">
	.st0{clip-path:url(#SVGID_2_);fill:url(#SVGID_3_);}
	.st1{clip-path:url(#SVGID_5_);fill:url(#SVGID_6_);}
	.st2{clip-path:url(#SVGID_8_);fill:url(#SVGID_9_);}
</style>
<g>
	<defs>
		<path id="SVGID_1_" d="M34.3,40.1c-0.3,9.4-0.9,18.3-1.5,23.9l4,0.4c0.5-4.8,1.1-14.2,1.5-24.4c-0.7,0.1-1.3,0.2-2,0.2
			C35.6,40.3,34.9,40.2,34.3,40.1z"/>
	</defs>
	<clipPath id="SVGID_2_">
		<use xlink:href="#SVGID_1_"  style="overflow:visible;"/>
	</clipPath>
	<linearGradient id="SVGID_3_" gradientUnits="userSpaceOnUse" x1="4" y1="0" x2="68" y2="64">
		<stop  offset="0" style="stop-color:#51FF8F"/>
		<stop  offset="1" style="stop-color:#008D83"/>
	</linearGradient>
	<rect x="4" class="st0" width="64" height="64"/>
</g>
<g>
	<defs>
		<path id="SVGID_4_" d="M38.4,12.4c-0.3-6-0.8-10.7-1.7-12.9L32.9,1c0.7,1.8,1.2,5.9,1.4,11.4c0.6-0.1,1.3-0.1,1.9-0.1
			C37,12.3,37.7,12.3,38.4,12.4z"/>
	</defs>
	<clipPath id="SVGID_5_">
		<use xlink:href="#SVGID_4_"  style="overflow:visible;"/>
	</clipPath>
	<linearGradient id="SVGID_6_" gradientUnits="userSpaceOnUse" x1="4" y1="0" x2="68" y2="64">
		<stop  offset="0" style="stop-color:#51FF8F"/>
		<stop  offset="1" style="stop-color:#008D83"/>
	</linearGradient>
	<rect x="4" class="st1" width="64" height="64"/>
</g>
<g>
	<defs>
		<path id="SVGID_7_" d="M52.3,26.3c0,8.8-7.2,16-16,16s-16-7.2-16-16s7.2-16,16-16S52.3,17.5,52.3,26.3z M24.3,26.3
			c0,6.6,5.4,12,12,12c6.6,0,12-5.4,12-12c0-6.6-5.4-12-12-12C29.7,14.3,24.3,19.7,24.3,26.3z"/>
	</defs>
	<clipPath id="SVGID_8_">
		<use xlink:href="#SVGID_7_"  style="overflow:visible;"/>
	</clipPath>
	<linearGradient id="SVGID_9_" gradientUnits="userSpaceOnUse" x1="4" y1="0" x2="68" y2="64">
		<stop  offset="0" style="stop-color:#51FF8F"/>
		<stop  offset="1" style="stop-color:#008D83"/>
	</linearGradient>
	<rect x="4" class="st2" width="64" height="64"/>
</g>
</svg>
