<?xml version="1.0" encoding="utf-8"?>
<!-- Generator: Adobe Illustrator 22.1.0, SVG Export Plug-In . SVG Version: 6.00 Build 0)  -->
<svg version="1.1" id="Layer_1" xmlns="http://www.w3.org/2000/svg" xmlns:xlink="http://www.w3.org/1999/xlink" x="0px" y="0px"
	 viewBox="0 0 64 64" style="enable-background:new 0 0 64 64;" xml:space="preserve">
<style type="text/css">
	.st0{clip-path:url(#SVGID_2_);fill:url(#SVGID_3_);}
	.st1{clip-path:url(#SVGID_2_);}
	.st2{fill:none;stroke:#000000;stroke-miterlimit:10;}
	.st3{clip-path:url(#SVGID_5_);fill:url(#SVGID_6_);}
	.st4{clip-path:url(#SVGID_5_);}
	.st5{clip-path:url(#SVGID_8_);fill:url(#SVGID_9_);}
</style>
<g>
	<defs>
		<path id="SVGID_1_" d="M24.2,32c-9.4-0.3-18.3-0.9-23.9-1.5l-0.4,4C4.6,35,14,35.6,24.2,36c-0.1-0.7-0.2-1.3-0.2-2
			C24,33.3,24.1,32.7,24.2,32z"/>
	</defs>
	<clipPath id="SVGID_2_">
		<use xlink:href="#SVGID_1_"  style="overflow:visible;"/>
	</clipPath>
	<linearGradient id="SVGID_3_" gradientUnits="userSpaceOnUse" x1="-9.094947e-13" y1="-9.094947e-13" x2="64" y2="64">
		<stop  offset="0" style="stop-color:#51FF8F"/>
		<stop  offset="1" style="stop-color:#008D83"/>
	</linearGradient>
	<rect class="st0" width="64" height="64"/>
	<g class="st1">
		<path class="st2" d="M-0.5,32.5"/>
	</g>
</g>
<g>
	<defs>
		<path id="SVGID_4_" d="M51.8,36.1c6-0.3,10.7-0.8,12.9-1.7l-1.5-3.7c-1.8,0.7-5.9,1.2-11.4,1.4c0.1,0.6,0.1,1.3,0.1,1.9
			C52,34.7,51.9,35.4,51.8,36.1z"/>
	</defs>
	<clipPath id="SVGID_5_">
		<use xlink:href="#SVGID_4_"  style="overflow:visible;"/>
	</clipPath>
	<linearGradient id="SVGID_6_" gradientUnits="userSpaceOnUse" x1="-9.094947e-13" y1="-9.094947e-13" x2="64" y2="64">
		<stop  offset="0" style="stop-color:#51FF8F"/>
		<stop  offset="1" style="stop-color:#008D83"/>
	</linearGradient>
	<rect class="st3" width="64" height="64"/>
	<g class="st4">
		<path class="st2" d="M63.5,32.5"/>
	</g>
</g>
<g>
	<defs>
		<path id="SVGID_7_" d="M38,50c-8.8,0-16-7.2-16-16s7.2-16,16-16s16,7.2,16,16S46.8,50,38,50z M38,22c-6.6,0-12,5.4-12,12
			c0,6.6,5.4,12,12,12c6.6,0,12-5.4,12-12C50,27.4,44.6,22,38,22z"/>
	</defs>
	<clipPath id="SVGID_8_">
		<use xlink:href="#SVGID_7_"  style="overflow:visible;"/>
	</clipPath>
	<linearGradient id="SVGID_9_" gradientUnits="userSpaceOnUse" x1="-9.094947e-13" y1="-9.094947e-13" x2="64" y2="64">
		<stop  offset="0" style="stop-color:#51FF8F"/>
		<stop  offset="1" style="stop-color:#008D83"/>
	</linearGradient>
	<rect class="st5" width="64" height="64"/>
</g>
</svg>
