<?xml version="1.0" encoding="utf-8"?>
<!-- Generator: Adobe Illustrator 22.1.0, SVG Export Plug-In . SVG Version: 6.00 Build 0)  -->
<svg version="1.1" id="Layer_1" xmlns="http://www.w3.org/2000/svg" xmlns:xlink="http://www.w3.org/1999/xlink" x="0px" y="0px"
	 viewBox="0 0 64 64" style="enable-background:new 0 0 64 64;" xml:space="preserve">
<style type="text/css">
	.st0{clip-path:url(#SVGID_2_);fill:url(#SVGID_3_);}
	.st1{clip-path:url(#SVGID_5_);fill:url(#SVGID_6_);}
	.st2{clip-path:url(#SVGID_8_);fill:url(#SVGID_9_);}
	.st3{clip-path:url(#SVGID_11_);fill:url(#SVGID_12_);}
</style>
<g>
	<defs>
		<path id="SVGID_1_" d="M33.5,24.6l5.7,5.7c0.8,0.8,0.8,2,0,2.8L10.9,61.4c-0.8,0.8-2,0.8-2.8,0l-5.7-5.7c-0.8-0.8-0.8-2,0-2.8
			l28.3-28.3C31.5,23.8,32.7,23.8,33.5,24.6z"/>
	</defs>
	<clipPath id="SVGID_2_">
		<use xlink:href="#SVGID_1_"  style="overflow:visible;"/>
	</clipPath>
	<linearGradient id="SVGID_3_" gradientUnits="userSpaceOnUse" x1="-2.156412e-09" y1="-2.156412e-09" x2="64" y2="64">
		<stop  offset="0" style="stop-color:#ED213A"/>
		<stop  offset="1" style="stop-color:#93291E"/>
	</linearGradient>
	<rect y="0" class="st0" width="64" height="64"/>
</g>
<g>
	<defs>
		<path id="SVGID_4_" d="M2.4,7.3l5.7-5.7c0.8-0.8,2-0.8,2.8,0l28.3,28.3c0.8,0.8,0.8,2,0,2.8l-5.7,5.7c-0.8,0.8-2,0.8-2.8,0
			L2.4,10.1C1.6,9.3,1.6,8.1,2.4,7.3z"/>
	</defs>
	<clipPath id="SVGID_5_">
		<use xlink:href="#SVGID_4_"  style="overflow:visible;"/>
	</clipPath>
	<linearGradient id="SVGID_6_" gradientUnits="userSpaceOnUse" x1="-2.156412e-09" y1="-2.156412e-09" x2="64" y2="64">
		<stop  offset="0" style="stop-color:#ED213A"/>
		<stop  offset="1" style="stop-color:#93291E"/>
	</linearGradient>
	<rect y="0" class="st1" width="64" height="64"/>
</g>
<g>
	<defs>
		<path id="SVGID_7_" d="M31.1,38.4l-5.7-5.7c-0.8-0.8-0.8-2,0-2.8L53.7,1.6c0.8-0.8,2-0.8,2.8,0l5.7,5.7c0.8,0.8,0.8,2,0,2.8
			L33.9,38.4C33.1,39.2,31.9,39.2,31.1,38.4z"/>
	</defs>
	<clipPath id="SVGID_8_">
		<use xlink:href="#SVGID_7_"  style="overflow:visible;"/>
	</clipPath>
	<linearGradient id="SVGID_9_" gradientUnits="userSpaceOnUse" x1="-2.156412e-09" y1="-2.156412e-09" x2="64" y2="64">
		<stop  offset="0" style="stop-color:#ED213A"/>
		<stop  offset="1" style="stop-color:#93291E"/>
	</linearGradient>
	<rect y="0" class="st2" width="64" height="64"/>
</g>
<g>
	<defs>
		<path id="SVGID_10_" d="M62.2,55.7l-5.7,5.7c-0.8,0.8-2,0.8-2.8,0L25.4,33.1c-0.8-0.8-0.8-2,0-2.8l5.7-5.7c0.8-0.8,2-0.8,2.8,0
			l28.3,28.3C63,53.7,63,54.9,62.2,55.7z"/>
	</defs>
	<clipPath id="SVGID_11_">
		<use xlink:href="#SVGID_10_"  style="overflow:visible;"/>
	</clipPath>
	<linearGradient id="SVGID_12_" gradientUnits="userSpaceOnUse" x1="-2.156412e-09" y1="-2.156412e-09" x2="64" y2="64">
		<stop  offset="0" style="stop-color:#ED213A"/>
		<stop  offset="1" style="stop-color:#93291E"/>
	</linearGradient>
	<rect y="0" class="st3" width="64" height="64"/>
</g>
</svg>
