<?xml version="1.0" encoding="utf-8"?>
<!-- Generator: Adobe Illustrator 22.1.0, SVG Export Plug-In . SVG Version: 6.00 Build 0)  -->
<svg version="1.1" id="Layer_1" xmlns="http://www.w3.org/2000/svg" xmlns:xlink="http://www.w3.org/1999/xlink" x="0px" y="0px"
	 viewBox="0 0 128 128" style="enable-background:new 0 0 128 128;" xml:space="preserve">
<style type="text/css">
	.st0{fill:#FFFFFF;}
</style>
<g>
	<path class="st0" d="M64,8C33.1,8,8,33.1,8,64c0,30.9,25.1,56,56,56s56-25.1,56-56C120,33.1,94.9,8,64,8z M103,68H68v35
		c0,1.1-0.9,2-2,2h-4c-1.1,0-2-0.9-2-2V68H25c-1.1,0-2-0.9-2-2v-4c0-1.1,0.9-2,2-2h35V25c0-1.1,0.9-2,2-2h4c1.1,0,2,0.9,2,2v35h35
		c1.1,0,2,0.9,2,2v4C105,67.1,104.1,68,103,68z"/>
</g>
<g>
	<circle class="st0" cx="-71" cy="129" r="64"/>
</g>
</svg>
