<?xml version="1.0" encoding="utf-8"?>
<!-- Generator: Adobe Illustrator 22.1.0, SVG Export Plug-In . SVG Version: 6.00 Build 0)  -->
<svg version="1.1" id="Layer_1" xmlns="http://www.w3.org/2000/svg" xmlns:xlink="http://www.w3.org/1999/xlink" x="0px" y="0px"
	 viewBox="0 0 128 128" style="enable-background:new 0 0 128 128;" xml:space="preserve">
<style type="text/css">
	.st0{clip-path:url(#SVGID_2_);fill:url(#SVGID_3_);}
	.st1{clip-path:url(#SVGID_5_);fill:url(#SVGID_6_);}
	.st2{clip-path:url(#SVGID_8_);fill:url(#SVGID_9_);}
</style>
<g>
	<defs>
		<path id="SVGID_1_" d="M64,8c30.9,0,56,25.1,56,56s-25.1,56-56,56S8,94.9,8,64S33.1,8,64,8 M64,0C28.7,0,0,28.7,0,64
			s28.7,64,64,64s64-28.7,64-64S99.3,0,64,0L64,0z"/>
	</defs>
	<clipPath id="SVGID_2_">
		<use xlink:href="#SVGID_1_"  style="overflow:visible;"/>
	</clipPath>
	<linearGradient id="SVGID_3_" gradientUnits="userSpaceOnUse" x1="0" y1="0" x2="128" y2="128">
		<stop  offset="0" style="stop-color:#51FF8F"/>
		<stop  offset="1" style="stop-color:#008D83"/>
	</linearGradient>
	<rect class="st0" width="128" height="128"/>
</g>
<g>
	<defs>
		<path id="SVGID_4_" d="M66,105h-4c-1.1,0-2-0.9-2-2V25c0-1.1,0.9-2,2-2h4c1.1,0,2,0.9,2,2v78C68,104.1,67.1,105,66,105z"/>
	</defs>
	<clipPath id="SVGID_5_">
		<use xlink:href="#SVGID_4_"  style="overflow:visible;"/>
	</clipPath>
	<linearGradient id="SVGID_6_" gradientUnits="userSpaceOnUse" x1="0" y1="0" x2="128" y2="128">
		<stop  offset="0" style="stop-color:#51FF8F"/>
		<stop  offset="1" style="stop-color:#008D83"/>
	</linearGradient>
	<rect class="st1" width="128" height="128"/>
</g>
<g>
	<defs>
		<path id="SVGID_7_" d="M103,68H25c-1.1,0-2-0.9-2-2v-4c0-1.1,0.9-2,2-2h78c1.1,0,2,0.9,2,2v4C105,67.1,104.1,68,103,68z"/>
	</defs>
	<clipPath id="SVGID_8_">
		<use xlink:href="#SVGID_7_"  style="overflow:visible;"/>
	</clipPath>
	<linearGradient id="SVGID_9_" gradientUnits="userSpaceOnUse" x1="0" y1="0" x2="128" y2="128">
		<stop  offset="0" style="stop-color:#51FF8F"/>
		<stop  offset="1" style="stop-color:#008D83"/>
	</linearGradient>
	<rect class="st2" width="128" height="128"/>
</g>
</svg>
