<?xml version="1.0" encoding="utf-8"?>
<!-- Generator: Adobe Illustrator 22.1.0, SVG Export Plug-In . SVG Version: 6.00 Build 0)  -->
<svg version="1.1" id="Layer_1" xmlns="http://www.w3.org/2000/svg" xmlns:xlink="http://www.w3.org/1999/xlink" x="0px" y="0px"
	 viewBox="0 0 64 64" style="enable-background:new 0 0 64 64;" xml:space="preserve">
<style type="text/css">
	.st0{clip-path:url(#SVGID_2_);fill:#FFFFFF;}
	.st1{clip-path:url(#SVGID_4_);fill:#FFFFFF;}
</style>
<g>
	<defs>
		<path id="SVGID_1_" d="M24.8,52.6L19.1,47c-0.8-0.8-0.8-2.1,0-2.9l32.5-32.5c0.8-0.8,2.1-0.8,2.9,0l5.6,5.6c0.8,0.8,0.8,2.1,0,2.9
			L27.6,52.6C26.8,53.4,25.6,53.4,24.8,52.6z"/>
	</defs>
	<clipPath id="SVGID_2_">
		<use xlink:href="#SVGID_1_"  style="overflow:visible;"/>
	</clipPath>
	<rect class="st0" width="64" height="64"/>
</g>
<g>
	<defs>
		<path id="SVGID_3_" d="M33.2,44.1L11.4,22.3c-0.8-0.8-2.1-0.8-2.9,0l-5.6,5.6c-0.8,0.8-0.8,2.1,0,2.9l21.9,21.9
			c0.8,0.8,2.1,0.8,2.9,0l5.6-5.6C34,46.2,34,44.9,33.2,44.1z"/>
	</defs>
	<clipPath id="SVGID_4_">
		<use xlink:href="#SVGID_3_"  style="overflow:visible;"/>
	</clipPath>
	<rect class="st1" width="64" height="64"/>
</g>
</svg>
