<?xml version="1.0" encoding="utf-8"?>
<!-- Generator: Adobe Illustrator 22.1.0, SVG Export Plug-In . SVG Version: 6.00 Build 0)  -->
<svg version="1.1" id="Layer_1" xmlns="http://www.w3.org/2000/svg" xmlns:xlink="http://www.w3.org/1999/xlink" x="0px" y="0px"
	 viewBox="0 0 1920 1080" style="enable-background:new 0 0 1920 1080;" xml:space="preserve">
<style type="text/css">
	.st0{fill:#39B55F;}
	.st1{fill:#39975F;}
	.st2{fill:#FFE5D4;}
	.st3{fill:#FFF76D;}
	.st4{display:none;}
	.st5{display:inline;}
	.st6{fill:#FFFFFF;}
	.st7{fill:none;}
	.st8{fill:#FFEA46;}
	.st9{fill:#FFDDB5;}
	.st10{display:inline;fill:#E6E6E6;}
	.st11{display:inline;fill:#39975F;}
	.st12{display:inline;fill:#FFE5D4;}
	.st13{display:inline;fill:none;}
	.st14{display:inline;fill:#FFEA46;}
	.st15{display:inline;fill:#FFDDB5;}
</style>
<g>
	<path class="st0" d="M1663.6,819.4c590.7-572.4-241.5-992.2-623-723.4"/>
	<path d="M1663.1,818.9c21.4-23.1,42.9-46,62.5-70.5l7.5-9.1c2.5-3,4.8-6.2,7.2-9.3l14.3-18.6c8.9-12.8,18.3-25.4,26.5-38.6
		c4.2-6.6,8.6-13,12.4-19.8l5.9-10.1l3-5c1-1.7,2-3.4,2.9-5.1l10.9-20.7c3.4-7,6.6-14.1,9.9-21.1c0.8-1.8,1.7-3.5,2.4-5.3l2.2-5.4
		l4.4-10.8c3.1-7.1,5.4-14.5,8-21.9l1.9-5.5c0.6-1.8,1.3-3.7,1.8-5.5l3.2-11.2l1.6-5.6c0.5-1.9,1.2-3.7,1.5-5.6l2.6-11.3
		c6.8-30.2,10.3-61.4,9.1-92.5c-0.1-1.9,0-3.9-0.2-5.8l-0.5-5.8l-1-11.6c-0.1-1.9-0.5-3.9-0.7-5.8l-0.9-5.8
		c-0.6-3.9-1.1-7.7-1.8-11.6l-2.5-11.4c-0.9-3.8-1.6-7.7-2.8-11.4l-3.3-11.2c-0.6-1.9-1.1-3.8-1.7-5.6l-2-5.5
		c-10.5-29.4-25.4-57.3-43.6-82.8c-2.2-3.2-4.7-6.2-7.1-9.4c-2.4-3.1-4.7-6.2-7.2-9.3l-7.7-8.9c-2.6-2.9-5-6-7.8-8.7l-8.1-8.5
		c-1.4-1.4-2.7-2.8-4.1-4.2l-4.2-4l-8.5-8.1l-2.1-2l-2.2-1.9l-4.4-3.8c-23.5-20.6-49.1-38.6-75.8-54.7c-26.7-16-54.7-30.1-83.5-42
		s-58.5-21.7-88.7-29.3l-22.7-5.4c-7.6-1.6-15.2-3.3-22.9-4.7l-11.5-2l-5.8-1c-1.9-0.4-3.8-0.7-5.8-0.9c-7.7-1-15.4-2.2-23.1-3.1
		c-61.8-7.4-124.8-6.4-186.1,4.9l-11.5,2.2c-3.8,0.8-7.6,1.7-11.4,2.6l-11.4,2.6l-11.3,3.1c-3.7,1.1-7.5,2-11.3,3.2l-11.1,3.6
		c-7.5,2.2-14.7,5.1-22.1,7.8c-14.6,5.6-28.9,12-42.9,19c-3.6,1.6-6.9,3.7-10.4,5.5l-10.3,5.7c-6.7,4-13.4,8.2-20.1,12.3l-0.7-1.1
		l9.6-6.9c3.2-2.3,6.4-4.7,9.7-6.8l10-6.3c3.4-2.1,6.6-4.3,10.1-6.1c13.7-7.8,27.8-15.2,42.4-21.4c7.3-3.1,14.5-6.3,22-9L1155,35
		c3.7-1.4,7.5-2.4,11.3-3.7l11.4-3.6l11.5-3.1c3.8-1,7.7-2.1,11.5-3l11.6-2.5c62.1-13.5,126.5-15.5,189.7-8.6c4,0.3,7.9,1,11.8,1.5
		l11.8,1.6c2,0.3,3.9,0.6,5.9,0.9l5.9,1l11.7,2.1c7.8,1.5,15.6,3.2,23.3,4.8c7.7,1.8,15.4,3.8,23.1,5.7c30.7,8.2,60.8,18.6,90,31.2
		c29.2,12.5,57.5,27.2,84.2,44.3c26.8,17.1,52,36.6,75.1,58.3c23.2,21.6,44.1,45.6,62.2,71.6c17.9,26.1,32.9,54.2,43.9,83.9
		c11.1,29.6,18.3,60.9,20.7,92.6l0.7,11.9c0.1,2,0.3,4,0.3,6v6c-0.1,8,0.1,15.9-0.6,23.9l-0.8,11.9c-0.1,2-0.4,4-0.7,5.9l-0.8,5.9
		l-1.6,11.9c-0.6,3.9-1.5,7.8-2.3,11.7c-6.2,31.3-16.5,61.7-29.7,90.6c-3.5,7.2-6.8,14.4-10.3,21.5l-11.3,21
		c-0.5,0.9-0.9,1.8-1.4,2.6l-1.6,2.5l-3.1,5.1l-6.2,10.1c-4,6.8-8.6,13.3-13,19.9c-8.6,13.3-18.5,25.7-28,38.4l-15.1,18.3
		c-2.6,3-5,6.1-7.6,9.1l-7.9,8.8l-7.9,8.8c-2.7,2.9-5.2,5.9-8,8.7l-16.6,16.9c-2.8,2.8-5.5,5.7-8.4,8.4l-8.6,8.1l-17.3,16.1
		L1663.1,818.9z"/>
</g>
<path class="st1" d="M1698.6,626.9c74.7-233.1,51.5-484.9-191.8-582.1c392.8,112.7,479.2,441,183.2,744.9"/>
<polygon class="st2" points="1719.5,671.1 1647.8,837.8 825.4,672.7 1624.3,387.9 "/>
<g>
	<path class="st0" d="M832.2,866.8c-302.3,25.9-501.7-76.1-779.8-68.5c159.1-219.1,437.2-165,643.4-367.1"/>
	<path d="M832.2,867.5c-65,8-131,9-196.5,4.6l-12.3-0.9c-4.1-0.3-8.2-0.7-12.3-1l-12.3-1.1c-4.1-0.3-8.2-0.8-12.2-1.3l-12.2-1.3
		c-4.1-0.4-8.1-1-12.2-1.5l-12.2-1.4l-12.2-1.6l-12.2-1.7l-12.2-1.9l-12.2-1.9l-12.1-2c-8.1-1.3-16.2-2.7-24.2-4.2
		c-8.1-1.4-16.1-2.9-24.2-4.4l-96.3-18.7c-32.1-6.1-64.3-11.8-96.7-16l-24.3-3c-8.1-0.8-16.2-1.7-24.4-2.5c-8.1-0.7-16.3-1.5-24.4-2
		c-8.1-0.5-16.3-1.1-24.4-1.5c-8.2-0.3-16.3-0.7-24.5-0.9c-8.2-0.1-16.3-0.3-24.5-0.3l-24.5,0.2L52.3,802l-7.9,0.3l4.7-6.3l14.2-19
		c5-6.2,10.1-12.1,15.2-18.2c1.2-1.5,2.6-3,4-4.4l4.1-4.3l8.2-8.6c1.3-1.5,2.8-2.8,4.3-4.2l4.3-4.1l8.7-8.1c1.4-1.4,3-2.6,4.5-3.9
		l4.6-3.8l9.2-7.6c6.3-4.8,12.7-9.5,19.1-14.2c6.6-4.4,13.2-8.8,19.9-13.1c6.8-4,13.6-8.2,20.5-12.1c27.6-15.5,56.5-28.6,85.7-40.3
		c7.3-2.9,14.7-5.8,22-8.5c7.4-2.7,14.8-5.5,22.2-8c7.4-2.6,14.8-5.2,22.2-7.8c7.4-2.6,14.8-5.1,22.3-7.5
		c29.7-9.8,59.4-19.7,88.8-30.2l11-4L475,560l10.9-4.2l10.8-4.4c3.6-1.5,7.2-2.9,10.8-4.4l10.7-4.6l10.7-4.6l10.6-4.9
		c28.2-13.1,55.6-28.1,81.6-45.1c6.5-4.3,13.1-8.5,19.3-13.2l9.5-6.8l4.7-3.4l4.6-3.6l9.1-7.3l4.6-3.7c0.8-0.6,1.5-1.2,2.3-1.8
		l2.2-1.9l17.7-15.4l0.9,0.9l-16.7,16.6l-2.1,2.1c-0.7,0.7-1.5,1.3-2.2,2l-4.4,3.9l-8.8,7.8l-4.4,3.9l-4.6,3.7l-9.2,7.4
		c-6,5.1-12.5,9.5-18.9,14.2c-25.6,18.4-52.8,34.5-80.9,48.7c-56.3,28.5-116.1,49-175.3,69.3c-14.8,5.1-29.6,10.1-44.3,15.3
		c-14.7,5.2-29.3,10.6-43.9,16.2c-29,11.2-57.5,23.6-84.7,38.4s-53,32-76.6,52c-23.6,19.9-45.1,42.5-63.8,67.2l-3.2-6.1h24.6
		l24.6,0.5c8.2,0.3,16.4,0.7,24.6,1.1l24.5,1.5c8.2,0.5,16.3,1.3,24.5,1.9l24.5,2.2c8.1,0.8,16.3,1.8,24.4,2.6l24.4,2.9
		c32.5,4.1,64.9,8.6,97.3,13.4c32.4,4.9,64.7,9.9,97,15l48.4,7.6l12.1,1.9l12.1,1.8l24.2,3.6l12.1,1.7l12.1,1.6
		c4,0.5,8.1,1.1,12.1,1.6l12.1,1.4c8.1,1,16.2,1.9,24.3,2.7c4.1,0.4,8.1,0.9,12.2,1.3l12.2,1.1c4.1,0.4,8.1,0.8,12.2,1.1l12.2,0.9
		l12.2,0.9l12.2,0.7l12.2,0.7l12.2,0.4l12.2,0.5c4.1,0.1,8.1,0.2,12.2,0.3c32.6,0.7,65.3,0.1,97.9-1.3L832.2,867.5z"/>
</g>
<g>
	<polygon class="st0" points="831.3,865.2 600.2,669.5 695.8,431.3 897.2,426.5 	"/>
</g>
<g>
	<path class="st2" d="M1647.8,837.8c-15.2,59.6-49,116-112.7,157.8c-78.9,62.5-483.2,149.7-688-47.2
		c-18.5-22.1-21.7-134.3-21.7-300.2"/>
	<path d="M1648.4,837.9c-3,16.3-7.9,32.4-14.2,47.9c-3.2,7.7-6.8,15.3-10.7,22.8c-4,7.4-8.4,14.6-13.1,21.6
		c-9.5,14-20.5,26.9-32.6,38.7c-12.2,11.7-25.4,22.3-39.6,31.5l0.4-0.3c-12.8,9.9-26.9,16.7-41.1,22.7
		c-14.2,6.1-28.8,10.9-43.5,15.3c-29.4,8.6-59.4,14.8-89.5,19.8c-60.2,10-121,15.2-182.1,14.7c-30.5-0.4-61.1-2.4-91.4-6.7
		s-60.4-11.2-89.7-20.5c-29.3-9.4-57.8-21.6-84.8-36.7c-26.8-15.4-52-33.8-74.2-55.4L842,953l-0.2-0.2c-2.7-3.3-4.3-6.7-5.7-10
		c-1.3-3.3-2.3-6.5-3.2-9.7c-1.8-6.4-3-12.8-4-19.2c-2-12.8-3.2-25.5-4.1-38.1c-1.9-25.4-2.4-50.7-2.8-75.9
		c-0.2-25.3-0.1-50.5,0.4-75.8c0.2-12.6,0.6-25.2,0.9-37.9c0.3-12.6,0.7-25.2,1.3-37.9h1.3c0.5,12.6,1,25.2,1.4,37.8l1.4,37.8
		c0.9,25.2,1.8,50.4,3.1,75.6c1.2,25.2,2.7,50.3,5,75.2c1.2,12.5,2.7,24.9,4.8,37c1.1,6.1,2.3,12.1,3.9,17.8
		c0.8,2.8,1.7,5.6,2.8,8.2c1.1,2.5,2.4,4.9,3.7,6.4l-0.5-0.5c43.4,41,96.6,71,153.5,90.2c28.5,9.6,57.8,16.8,87.5,22.1
		c29.7,5.2,59.8,8.8,90,10.3c15.1,0.7,30.3,1.1,45.4,1c15.2-0.2,30.3-0.8,45.4-1.9c7.6-0.6,15.1-1.2,22.7-2
		c3.8-0.4,7.5-0.8,11.3-1.3c3.8-0.4,7.5-0.9,11.3-1.4c15-2,30-4.6,44.8-7.5c29.7-6,59-13.9,87.6-23.7c14.3-4.9,28.3-10.3,42-16.4
		c6.8-3.1,13.5-6.3,20-9.9c6.5-3.5,12.7-7.4,18.3-11.8l0.2-0.1l0.2-0.2c6.7-4.5,13.4-9.2,19.8-14.1c6.4-5,12.6-10.2,18.6-15.7
		s11.7-11.2,17.2-17.2c5.4-6,10.6-12.3,15.5-18.8s9.5-13.2,13.7-20.2c4.3-6.9,8.3-14.1,11.9-21.4c7.4-14.6,13.4-30,18.6-45.7
		L1648.4,837.9z"/>
</g>
<g>
	<path class="st3" d="M1269.3,79.3C900.6,20.4,864.8,326.4,624.1,367.6C671.7,432,765.7,477,840.7,469.4"/>
	<path d="M1269.3,79.3c-30.5-2.9-61.1-4.1-91.5-3.2c-3.8,0-7.6,0.3-11.4,0.5l-5.7,0.3c-1.9,0.1-3.8,0.3-5.7,0.4
		c-3.8,0.3-7.6,0.5-11.3,0.9l-11.3,1.2c-15,2-29.9,4.5-44.6,8.1c-29.3,7.1-57.8,17.2-85.1,30.4c-27.3,13.1-53.3,29.5-77.3,48.3
		C901.3,185,879,206,857.1,227.4c-21.9,21.4-43.5,43.3-66.9,63.5c-5.8,5.1-11.8,10-17.9,14.7c-6.1,4.8-12.3,9.4-18.6,13.9
		c-12.7,8.9-26,17.2-39.8,24.5s-28.2,13.6-43,18.8c-14.8,5-30.1,8.9-45.5,11.6l4.4-10.9c11.8,16.2,26.2,30.6,41.9,43.4
		c7.8,6.4,16.1,12.4,24.6,17.9s17.3,10.6,26.4,15.3c9.1,4.6,18.4,8.8,27.9,12.5c9.5,3.6,19.3,6.8,29.2,9.4c19.8,5.1,40.3,7.8,61,6.9
		l0.1,1.3c-20.6,3.2-41.9,2.1-62.6-1.7c-10.3-1.9-20.6-4.5-30.6-7.7s-19.9-7-29.5-11.4s-19-9.2-28.1-14.7
		c-9.1-5.4-17.9-11.4-26.3-17.8c-16.9-12.9-32.2-27.9-45.2-45l-6.8-9L623,361c14.8-2.5,29.3-6.2,43.5-10.9
		c14.2-4.7,28.1-10.5,41.5-17.2s26.4-14.4,39-22.8c6.3-4.2,12.5-8.5,18.6-13c3-2.3,6.1-4.5,9.1-6.8s6-4.6,9-7
		c23.9-18.8,46.9-39.1,69.8-59.5c22.9-20.4,45.6-41.1,69.4-60.6c23.8-19.5,48.6-38,75.7-53.1c27-15.2,56.4-26.6,86.8-33.3
		c15.2-3.4,30.5-5.9,46-7.4l11.6-0.9c3.9-0.3,7.7-0.4,11.6-0.6s7.7-0.2,11.6-0.2s7.7-0.1,11.6,0.1
		C1208.7,68.1,1239.3,72.7,1269.3,79.3L1269.3,79.3z"/>
</g>
<path d="M864.6,698.6c6.1,4.2,11.8,8.7,17.4,13.4c5.6,4.7,11,9.6,16.3,14.6c10.5,10.1,20.6,20.6,30.2,31.6
	c9.6,10.9,18.7,22.3,27.4,34c8.6,11.7,16.9,23.7,24.1,36.6c-5.7-4.7-11.1-9.6-16.4-14.7c-5.3-5-10.4-10.2-15.4-15.4
	c-10.1-10.4-19.8-21.1-29.3-32s-18.8-21.9-27.9-33.2C881.8,722.2,872.9,710.8,864.6,698.6z"/>
<path d="M867.4,809.1c1.3-2.6,2.7-5,4.1-7.5c1.5-2.4,3-4.8,4.6-7.1c1.6-2.3,3.3-4.6,5-6.8c1.8-2.2,3.6-4.4,5.4-6.5
	c7.4-8.5,15.5-16.4,24.3-23.5s18.3-13.5,28.4-18.7c2.5-1.3,5.1-2.5,7.8-3.6c1.3-0.5,2.6-1.2,4-1.6l4.1-1.4c2.7-1,5.5-1.6,8.3-2.3
	c1.4-0.4,2.8-0.5,4.2-0.8c1.4-0.2,2.8-0.4,4.3-0.5c-9.7,6-18.5,12.3-27.2,18.8s-17.2,13.3-25.7,20.1c-8.5,6.8-16.9,13.8-25.4,20.7
	C885.1,795.3,876.6,802.4,867.4,809.1z"/>
<path d="M1182.5,740c10.9,8.7,20.6,18.5,30,28.5s18.3,20.3,27.1,30.7l26.2,31.1c8.7,10.4,17.7,20.5,26.8,31.1
	c-3.1-1.6-6.1-3.3-9.1-5.1c-2.9-1.9-5.8-3.8-8.7-5.8c-2.8-2.1-5.6-4.1-8.3-6.3c-1.4-1.1-2.7-2.2-4-3.3s-2.7-2.2-3.9-3.4
	c-10.4-9.2-19.9-19.3-28.8-29.8s-17.2-21.4-25.1-32.7C1196.8,763.6,1189.3,752.2,1182.5,740z"/>
<path d="M1169.6,840.5c9.9-8.5,19.6-16.5,29.2-24.8c9.6-8.2,19.1-16.5,28.8-24.8c9.7-8.2,19.5-16.4,30.1-23.9
	c5.3-3.7,10.7-7.3,16.5-10.4c2.9-1.6,5.9-3,8.9-4.2c3.1-1.2,6.3-2.2,9.5-2.7c-2.7,1.8-5.2,3.8-7.7,5.8c-2.4,2.1-4.8,4.1-7.1,6.3
	c-4.6,4.3-9.2,8.7-13.7,13.1c-9.1,8.8-18.4,17.6-28.2,25.9c-9.8,8.3-20.1,16.2-31.1,23.1c-5.5,3.5-11.2,6.7-17,9.5
	C1181.9,836.1,1175.9,838.6,1169.6,840.5z"/>
<g class="st4">
	<path class="st5" d="M965.5,2165.5c3.6-2.7,7.9-4.6,12.2-6.2c1.1-0.4,2.2-0.7,3.3-1.1c1.1-0.3,2.2-0.7,3.3-1
		c2.2-0.6,4.5-1.1,6.7-1.5c9-1.8,18.1-2.6,27.2-2.9c18.2-0.6,36.4,1,54.2,4.1c2.2,0.4,4.5,0.8,6.7,1.2l6.7,1.4c4.4,1,8.8,2,13.2,3.3
		c8.8,2.4,17.4,5.2,25.9,8.6c8.5,3.4,16.7,7.3,24.5,12.2c1.9,1.3,3.9,2.5,5.7,3.9l2.7,2.1c0.5,0.4,0.9,0.7,1.4,1l1.3,1.1l2.6,2.3
		c0.8,0.8,1.6,1.7,2.4,2.5l1.2,1.3c0.4,0.4,0.7,0.9,1.1,1.3c0.7,0.9,1.4,1.8,2,2.7c-7.2-5.5-15.1-9.3-23.2-12.6
		c-8.1-3.2-16.5-5.9-24.9-8.3c-8.4-2.4-17-4.5-25.5-6.3c-4.3-1-8.6-1.8-12.9-2.7l-6.5-1.2c-2.2-0.4-4.3-0.7-6.5-1.1
		c-17.3-3-34.8-5.4-52.3-6.7c-8.8-0.7-17.5-1.1-26.3-0.9c-4.4,0-8.8,0.4-13.1,0.8l-3.3,0.5c-0.5,0.1-1.1,0.1-1.6,0.2l-1.6,0.3
		l-1.6,0.3c-0.6,0.1-1.1,0.2-1.6,0.4C967.6,2164.9,966.5,2165.2,965.5,2165.5z"/>
</g>
<g class="st4">
	<g class="st5">
		<path d="M-1089.2-936.1c-10.1,4.4-20,9.2-29.5,14.6c-4.8,2.7-9.5,5.6-14,8.6c-2.3,1.5-4.5,3.1-6.8,4.7c-2.2,1.6-4.4,3.2-6.6,4.9
			c-4.3,3.4-8.5,6.9-12.5,10.6c-4,3.7-7.9,7.6-11.5,11.7c-7.3,8.1-13.9,16.9-19.7,26.2c-5.8,9.3-10.8,19-15.3,29
			s-8.6,20.2-13.1,30.3c-2.2,5.1-4.6,10.1-7.3,15c-1.3,2.5-2.8,4.9-4.3,7.2c-1.5,2.4-3.2,4.7-4.9,6.9c-3.5,4.4-7.6,8.5-12.2,11.9
			c-4.6,3.4-9.7,6.1-15.1,8.1v-4.4c21.6,7.7,43.6,14.4,65.9,19.8c11.2,2.7,22.4,5.1,33.6,7.1c11.3,2,22.6,3.8,34,5.2
			c22.7,2.8,45.7,4.2,68.5,4.1c11.4-0.1,22.9-0.5,34.3-1.3s22.8-2,34-3.7c22.6-3.4,44.9-8.3,66.5-15.5c21.6-7.1,42.4-16.6,61.7-28.7
			c19.1-12.2,36.7-27.1,50.8-45l2.6-3.4l2.5-3.5c1.7-2.3,3.2-4.7,4.8-7.1c0.8-1.2,1.5-2.4,2.3-3.6c0.7-1.2,1.5-2.4,2.2-3.7l2.1-3.7
			l1-1.9c0.3-0.6,0.7-1.3,1-1.9c5.2-10.2,9.5-20.9,12.8-31.9l0.8,0.2c-2.5,11.3-6.3,22.3-11.1,32.9c-0.3,0.7-0.6,1.3-0.9,2l-1,2
			l-1.9,3.9c-0.7,1.3-1.4,2.6-2.1,3.8c-0.7,1.3-1.4,2.6-2.1,3.8c-1.5,2.5-3,5-4.6,7.4l-2.4,3.6l-2.6,3.5c-3.4,4.7-7.1,9.2-11,13.6
			c-2,2.1-3.9,4.3-6,6.4c-2.1,2.1-4.1,4.2-6.3,6.1c-8.5,8-17.7,15.2-27.4,21.8c-9.7,6.5-19.9,12.3-30.4,17.3
			c-10.5,5.1-21.3,9.5-32.3,13.4c-11,3.8-22.2,7.1-33.6,9.7l-8.5,1.9l-8.6,1.7l-8.6,1.5l-8.6,1.3c-11.5,1.6-23.1,2.7-34.7,3.4
			s-23.2,0.9-34.8,0.8c-23.2-0.3-46.4-2-69.3-5.1c-11.5-1.6-22.9-3.4-34.3-5.6c-11.4-2.2-22.7-4.8-33.9-7.6
			c-22.4-5.6-44.5-12.7-66.2-20.7l-5.9-2.2l5.9-2.2c5-1.8,9.8-4.2,14-7.3c4.3-3.1,8.1-6.8,11.5-10.9c6.8-8.3,11.7-18.1,16.3-28
			c4.6-10,8.8-20.1,13.5-30.1c4.7-10,9.9-19.8,15.9-29.1s12.8-18.1,20.4-26.2c3.8-4.1,7.7-7.9,11.9-11.6c4.1-3.7,8.4-7.2,12.8-10.5
			c2.2-1.7,4.5-3.3,6.7-4.9c2.3-1.5,4.6-3.1,6.9-4.6c4.6-3,9.4-5.8,14.2-8.5c9.7-5.3,19.7-10,29.8-14.2L-1089.2-936.1z"/>
	</g>
	<g class="st5">
		<path d="M-932.1-1084.7c-19-1.8-38-3-56.9-2.4c-2.4,0-4.7,0.2-7.1,0.3l-3.5,0.2c-1.2,0.1-2.4,0.2-3.5,0.3c-2.3,0.2-4.7,0.3-7,0.6
			l-7,0.8c-9.3,1.2-18.6,2.8-27.7,5c-18.2,4.4-36,10.7-53,18.9c-17,8.1-33.1,18.3-48.1,30c-15,11.7-28.9,24.8-42.5,38.1
			s-27.1,26.9-41.6,39.5c-3.6,3.2-7.3,6.2-11.1,9.2s-7.7,5.9-11.6,8.7c-7.9,5.6-16.2,10.7-24.7,15.2c-8.6,4.5-17.5,8.5-26.8,11.7
			c-9.2,3.1-18.7,5.6-28.3,7.2l2.7-6.8c7.3,10.1,16.3,19,26,27c4.9,4,10,7.7,15.3,11.1c5.3,3.4,10.8,6.6,16.4,9.5
			c5.7,2.9,11.4,5.5,17.4,7.8c5.9,2.3,12,4.2,18.1,5.8c12.3,3.2,25.1,4.9,38,4.3l0.1,0.8c-12.8,2-26.1,1.3-38.9-1.1
			c-6.4-1.2-12.8-2.8-19-4.8c-6.2-2-12.4-4.4-18.3-7.1c-6-2.7-11.8-5.7-17.5-9.1c-5.6-3.4-11.1-7.1-16.4-11.1
			c-10.5-8-20-17.4-28.1-28l-4.2-5.6l6.9-1.2c9.2-1.6,18.2-3.8,27.1-6.8c8.8-2.9,17.5-6.5,25.8-10.7c8.4-4.2,16.5-8.9,24.3-14.2
			c3.9-2.6,7.8-5.3,11.6-8.1c1.9-1.4,3.8-2.8,5.7-4.3c1.9-1.4,3.8-2.9,5.6-4.3c14.9-11.7,29.2-24.3,43.4-37s28.3-25.6,43.2-37.7
			c14.8-12.1,30.2-23.6,47.1-33.1c16.8-9.5,35.1-16.6,54-20.7c9.4-2.1,19-3.7,28.6-4.6l7.2-0.6c2.4-0.2,4.8-0.2,7.2-0.4
			c2.4-0.1,4.8-0.1,7.2-0.1c2.4,0,4.8-0.1,7.2,0c19.2,0.4,38.3,2.8,57,6.9L-932.1-1084.7z"/>
	</g>
	<g class="st5">
		<path class="st6" d="M-783.2-860.6c53.6,19.6,131.9,122.5,71.5,164.5c-42.6,34-28.2,74.8-55.7,112.7
			c73.9,4.1,116.4-83.9,121.3-157c22.3-160.1-60.9-354-286-344.7"/>
		<path d="M-783.2-860.6c6.7,2.3,13,5.6,19,9.3s11.8,7.9,17.2,12.4c10.9,9,20.8,19.3,29.6,30.4c8.7,11.2,16.4,23.3,22,36.5
			c1.4,3.3,2.7,6.7,3.7,10.1c1.1,3.4,2,6.9,2.7,10.5c1.4,7.1,1.8,14.5,0.9,21.7c-0.5,3.6-1.3,7.3-2.5,10.8s-2.9,6.9-4.9,10
			s-4.4,6-7,8.6l-2,1.9c-0.7,0.6-1.4,1.2-2.1,1.8s-1.4,1.1-2.1,1.7c-0.7,0.5-1.5,1.1-2.1,1.6c-2.6,2.1-5.1,4.4-7.5,6.9l-1.8,1.8
			l-1.7,1.9c-1.2,1.3-2.2,2.6-3.2,4c-4.2,5.4-7.5,11.3-10.3,17.6c-5.5,12.6-8.1,26.3-11.8,40.1c-1.8,6.9-4,13.8-6.8,20.5
			s-6.4,13.1-10.7,19.1l-2.6-5.5c8.8,0.5,17.5-0.4,25.9-2.8c8.4-2.3,16.4-6.1,23.7-10.9c7.3-4.8,14-10.7,20-17.2s11.3-13.7,16-21.2
			c9.4-15.1,16.6-31.7,21.8-48.9c5.2-17.2,8.5-34.9,9.7-52.8v-0.1v-0.1c5.9-42.3,4.3-85.7-4.7-127.5c-8.9-41.7-26-82-51.5-116.2
			c-12.8-17.1-27.7-32.6-44.5-45.8c-16.8-13.3-35.4-24.2-55.1-32.5c-19.7-8.4-40.6-14.2-61.8-17.7c-21.2-3.6-42.9-4.8-64.4-4.4
			c10.8-0.6,21.6-0.8,32.4-0.5s21.6,1.3,32.4,2.7c21.5,2.9,42.7,8.2,62.9,16.3c20.2,8,39.4,18.8,56.8,32
			c17.4,13.2,32.9,28.9,46.2,46.2c13.3,17.3,24.5,36.3,33.4,56.2c9,19.9,15.7,40.8,20.5,62.1s7.5,43.1,8.4,64.9
			c0.9,21.8-0.2,43.7-3.1,65.3v-0.3c-1.3,18.5-4.8,36.8-10.2,54.5c-5.4,17.7-12.8,34.9-22.8,50.7c-5,7.9-10.6,15.4-17,22.3
			c-6.4,6.9-13.6,13.1-21.5,18.2c-7.9,5.1-16.7,9.1-25.9,11.6c-9.2,2.5-18.8,3.4-28.2,2.8l-6.3-0.4l3.7-5.1
			c4-5.5,7.3-11.4,10.1-17.7c2.7-6.3,4.9-12.8,6.7-19.5c3.8-13.4,6.6-27.5,12.6-40.8c3-6.6,6.7-13,11.2-18.7
			c1.1-1.4,2.3-2.9,3.5-4.2l1.8-2l1.9-1.9c2.6-2.6,5.3-5,8.2-7.3c0.7-0.6,1.4-1.1,2.1-1.6s1.4-1,2.1-1.5c0.6-0.5,1.3-1,1.9-1.6
			l1.9-1.7c2.4-2.3,4.6-4.9,6.4-7.6c1.9-2.8,3.4-5.7,4.6-8.9c1.2-3.1,2-6.4,2.5-9.7c1-6.7,0.7-13.6-0.5-20.3
			c-0.6-3.4-1.4-6.7-2.4-10.1c-1-3.3-2.1-6.6-3.4-9.8c-5.1-12.9-12.3-25-20.6-36.3c-8.4-11.2-17.8-21.7-28.4-31
			c-2.6-2.3-5.3-4.6-8.1-6.7c-2.8-2.2-5.6-4.2-8.5-6.2C-770.5-854.5-776.6-858-783.2-860.6z"/>
	</g>
	<g class="st5">
		<path d="M-696.2-613.2c-1.9,10.2-4.9,20.2-8.8,29.8c-2,4.8-4.2,9.5-6.7,14.2c-2.5,4.6-5.2,9.1-8.1,13.4
			c-5.9,8.7-12.7,16.7-20.3,24c-7.6,7.3-15.8,13.9-24.6,19.6l0.3-0.2c-8,6.1-16.7,10.4-25.6,14.1c-8.8,3.8-17.9,6.8-27.1,9.5
			c-18.3,5.3-36.9,9.2-55.6,12.3c-37.4,6.2-75.3,9.5-113.3,9.2c-19-0.2-38-1.5-56.9-4.2s-37.6-7-55.8-12.8
			c-18.2-5.9-35.9-13.4-52.7-22.8c-16.7-9.6-32.3-21-46.2-34.5l2.9,1.2c-1.3,0-2.4-0.5-3.1-1c-0.7-0.5-1.1-0.9-1.4-1.3
			c-0.6-0.8-1-1.4-1.3-2c-0.6-1.2-0.9-2.3-1.3-3.3c-0.6-2.1-1.1-4.1-1.5-6.1c-0.8-4-1.4-8-1.9-11.9c-1-7.9-1.6-15.8-2.2-23.7
			c-1.1-15.7-1.7-31.5-2.1-47.2c-0.3-15.7-0.5-31.5-0.3-47.2c0-7.9,0.2-15.7,0.4-23.6l0.3-11.8l0.4-11.8h0.8l0.9,23.5l1,23.5
			c0.7,15.7,1.5,31.4,2.5,47c0.9,15.6,2.1,31.3,3.5,46.8c0.7,7.8,1.6,15.5,2.7,23.2c0.5,3.8,1.2,7.6,1.9,11.3
			c0.4,1.8,0.8,3.7,1.4,5.3c0.3,0.8,0.6,1.6,0.8,2.2c0.1,0.3,0.3,0.5,0.3,0.5s-0.1-0.1-0.3-0.3c-0.2-0.2-0.9-0.5-1.7-0.5l2.9,1.2
			c27,25.5,60.1,44.2,95.5,56.1c17.7,6,35.9,10.4,54.4,13.7c18.5,3.2,37.2,5.5,56,6.4c9.4,0.5,18.8,0.7,28.3,0.6
			c9.4-0.1,18.9-0.5,28.3-1.2c4.7-0.4,9.4-0.8,14.1-1.2c2.3-0.2,4.7-0.5,7-0.8s4.7-0.6,7-0.9c9.4-1.2,18.7-2.9,27.9-4.7
			c18.5-3.8,36.7-8.6,54.5-14.7c8.9-3,17.6-6.4,26.1-10.2c4.2-1.9,8.4-3.9,12.4-6.2c4-2.2,7.9-4.6,11.4-7.3l0.1-0.1l0.1-0.1
			c4.2-2.8,8.3-5.7,12.3-8.8s7.9-6.3,11.5-9.8c3.7-3.4,7.3-7,10.7-10.7c3.4-3.7,6.6-7.7,9.6-11.7s5.9-8.2,8.5-12.6
			c2.7-4.3,5.2-8.8,7.4-13.3c4.6-9.1,8.3-18.6,11.6-28.4L-696.2-613.2z"/>
	</g>
	<g class="st5">
		<path d="M-687.1-625c13.3-14.4,26.7-28.6,38.9-43.9l4.7-5.6c1.6-1.9,3-3.9,4.5-5.8l8.9-11.6c5.6-8,11.4-15.8,16.5-24
			c2.6-4.1,5.4-8.1,7.7-12.3l3.7-6.3l1.8-3.1c0.6-1,1.2-2.1,1.8-3.2l6.8-12.9c2.1-4.3,4.1-8.8,6.2-13.1c0.5-1.1,1-2.2,1.5-3.3
			l1.3-3.4l2.7-6.7c1.9-4.4,3.4-9.1,5-13.6l1.2-3.4c0.4-1.1,0.8-2.3,1.1-3.4l2-7l1-3.5c0.3-1.2,0.7-2.3,1-3.5l1.6-7.1
			c4.3-18.8,6.4-38.2,5.7-57.5c0-1.2,0-2.4-0.1-3.6l-0.3-3.6l-0.6-7.2c-0.1-1.2-0.3-2.4-0.5-3.6l-0.5-3.6c-0.4-2.4-0.7-4.8-1.1-7.2
			l-1.6-7.1c-0.6-2.4-1-4.8-1.7-7.1l-2.1-7c-0.4-1.2-0.7-2.3-1.1-3.5l-1.3-3.4c-6.6-18.3-15.8-35.7-27.1-51.5
			c-1.4-2-2.9-3.9-4.4-5.8c-1.5-1.9-2.9-3.9-4.5-5.8l-4.8-5.5c-1.6-1.8-3.1-3.7-4.9-5.4l-5-5.3c-0.8-0.9-1.7-1.8-2.5-2.6l-2.6-2.5
			l-5.3-5l-1.3-1.3l-1.4-1.2l-2.8-2.4c-14.6-12.8-30.6-24-47.2-34s-34-18.7-51.9-26.1s-36.4-13.5-55.2-18.3l-14.1-3.3
			c-4.7-1-9.5-2-14.2-2.9l-7.2-1.2l-3.6-0.6c-1.2-0.2-2.4-0.4-3.6-0.6c-4.8-0.6-9.6-1.4-14.4-1.9c-38.4-4.6-77.6-4-115.8,3l-7.1,1.3
			c-2.4,0.5-4.7,1.1-7.1,1.6l-7.1,1.6l-7,1.9c-2.3,0.7-4.7,1.2-7,2l-6.9,2.3c-4.7,1.4-9.2,3.2-13.7,4.9c-9.1,3.5-18,7.5-26.7,11.8
			c-2.2,1-4.3,2.3-6.4,3.4l-6.4,3.5c-4.2,2.5-8.3,5.1-12.5,7.7l-0.5-0.7l6-4.3c2-1.4,4-2.9,6-4.2l6.2-3.9c2.1-1.3,4.1-2.7,6.3-3.8
			c8.5-4.9,17.3-9.4,26.4-13.3c4.5-1.9,9-3.9,13.7-5.6l6.9-2.6c2.3-0.8,4.7-1.5,7-2.3l7.1-2.2l7.1-1.9c2.4-0.6,4.8-1.3,7.2-1.9
			l7.2-1.6c38.7-8.4,78.7-9.7,118-5.3c2.5,0.2,4.9,0.6,7.4,0.9l7.3,1c1.2,0.2,2.4,0.4,3.7,0.6l3.7,0.6l7.3,1.3c4.9,0.9,9.7,2,14.5,3
			c4.8,1.1,9.6,2.4,14.4,3.6c19.1,5.1,37.8,11.6,56,19.4s35.7,16.9,52.4,27.6c16.7,10.6,32.3,22.8,46.7,36.2
			c14.4,13.4,27.5,28.4,38.7,44.5c11.2,16.2,20.5,33.7,27.3,52.2c6.9,18.4,11.4,37.9,12.9,57.6l0.4,7.4c0.1,1.2,0.2,2.5,0.2,3.7v3.7
			c0,5,0.1,9.9-0.4,14.9l-0.5,7.4c-0.1,1.2-0.2,2.5-0.4,3.7l-0.5,3.7l-1,7.4c-0.4,2.5-0.9,4.9-1.4,7.3
			c-3.9,19.5-10.3,38.4-18.5,56.4c-2.2,4.5-4.2,9-6.4,13.4l-7.1,13c-0.3,0.5-0.6,1.1-0.9,1.6l-1,1.6l-1.9,3.2l-3.9,6.3
			c-2.5,4.3-5.3,8.3-8.1,12.4c-5.4,8.3-11.5,16-17.4,23.9l-9.4,11.4c-1.6,1.9-3.1,3.8-4.8,5.6l-4.9,5.5l-4.9,5.5
			c-1.7,1.8-3.2,3.7-5,5.4l-10.3,10.5c-1.7,1.7-3.4,3.5-5.2,5.2l-5.4,5l-10.8,10L-687.1-625z"/>
	</g>
	<g class="st5">
		<path d="M-1204-594.8c-40.4,5-81.5,5.6-122.2,2.9l-7.6-0.5c-2.5-0.2-5.1-0.4-7.6-0.6l-7.6-0.7c-2.5-0.2-5.1-0.5-7.6-0.8l-7.6-0.8
			c-2.5-0.3-5.1-0.6-7.6-0.9l-7.6-0.9l-7.6-1l-7.6-1l-7.6-1.2l-7.6-1.2l-7.5-1.2c-5-0.8-10-1.7-15.1-2.6c-5-0.9-10-1.8-15-2.7
			l-59.9-11.6c-20-3.8-40-7.3-60.2-10l-15.1-1.9c-5.1-0.5-10.1-1.1-15.2-1.6c-5.1-0.4-10.1-0.9-15.2-1.3c-5.1-0.3-10.1-0.7-15.2-0.9
			s-10.1-0.4-15.2-0.5s-10.1-0.2-15.2-0.2l-15.2,0.1l-15.2,0.5l-4.9,0.2l2.9-3.9l8.8-11.8c3.1-3.8,6.3-7.6,9.5-11.3
			c0.8-1,1.6-1.8,2.5-2.7l2.6-2.7l5.1-5.3c0.8-0.9,1.7-1.7,2.6-2.6l2.7-2.5l5.4-5c0.9-0.9,1.9-1.6,2.8-2.4l2.9-2.4l5.7-4.7
			c3.9-3,7.9-5.9,11.9-8.8c4.1-2.7,8.2-5.5,12.4-8.1c4.2-2.5,8.4-5.1,12.7-7.5c17.2-9.7,35.1-17.8,53.3-25.1
			c4.6-1.8,9.1-3.6,13.7-5.3c4.6-1.7,9.2-3.4,13.8-5s9.2-3.3,13.8-4.8c4.6-1.6,9.2-3.1,13.9-4.7c18.5-6.1,36.9-12.3,55.2-18.8
			l6.8-2.5l6.8-2.6l6.8-2.6l6.7-2.7c2.2-0.9,4.5-1.8,6.7-2.7l6.7-2.9l6.7-2.9l6.6-3.1c17.5-8.2,34.6-17.5,50.8-28
			c4-2.7,8.1-5.3,12-8.2l5.9-4.3l3-2.1l2.8-2.3l5.7-4.5l2.8-2.3c0.5-0.4,1-0.8,1.4-1.1l1.4-1.2l11-9.6l0.6,0.6l-10.4,10.3l-1.3,1.3
			c-0.4,0.4-0.9,0.8-1.4,1.2l-2.7,2.4l-5.5,4.9l-2.7,2.4l-2.9,2.3l-5.7,4.6c-3.7,3.2-7.8,5.9-11.7,8.8
			c-15.9,11.5-32.8,21.5-50.4,30.3c-35,17.8-72.2,30.5-109,43.1c-9.2,3.2-18.4,6.3-27.6,9.5c-9.2,3.2-18.2,6.6-27.3,10.1
			c-18.1,6.9-35.8,14.7-52.7,23.9s-33,19.9-47.7,32.4c-14.7,12.4-28,26.4-39.7,41.8l-2-3.8h15.3l15.3,0.3c5.1,0.2,10.2,0.4,15.3,0.7
			l15.3,0.9c5.1,0.3,10.2,0.8,15.2,1.2l15.2,1.4c5.1,0.5,10.1,1.1,15.2,1.6l15.2,1.8c20.2,2.5,40.4,5.4,60.5,8.3
			c20.1,3,40.3,6.2,60.3,9.3l30.1,4.7l7.5,1.2l7.5,1.1l15.1,2.2l7.5,1.1l7.5,1c2.5,0.3,5,0.7,7.5,1l7.6,0.9c5,0.6,10.1,1.2,15.1,1.7
			c2.5,0.3,5,0.6,7.6,0.8l7.6,0.7c2.5,0.2,5,0.5,7.6,0.7l7.6,0.6l7.6,0.6l7.6,0.4l7.6,0.4l7.6,0.3l7.6,0.3c2.5,0.1,5.1,0.1,7.6,0.2
			c20.3,0.4,40.6,0.1,60.9-0.8L-1204-594.8z"/>
	</g>
	<g class="st5">
		<path d="M-1183.8-699.9c7.5,5.2,14.4,11.2,21,17.5c6.6,6.3,12.8,12.8,18.8,19.6s11.6,13.8,17,21.1s10.5,14.8,15,22.8
			c-7.1-5.9-13.5-12.2-19.8-18.7c-6.3-6.5-12.3-13.1-18.2-19.9c-5.9-6.8-11.7-13.7-17.4-20.7
			C-1173.1-685.2-1178.6-692.3-1183.8-699.9z"/>
	</g>
	<g class="st5">
		<path d="M-1182.1-631.1c3.2-6.4,7.4-12.1,11.9-17.4c4.6-5.3,9.7-10.2,15.1-14.6c5.5-4.4,11.4-8.4,17.7-11.6
			c1.6-0.8,3.2-1.6,4.8-2.3s3.3-1.3,5-1.9c3.4-1.1,6.9-1.9,10.4-2.2c-6,3.8-11.5,7.6-16.9,11.7c-5.4,4.1-10.7,8.3-16,12.5
			l-15.7,12.9C-1171.1-639.7-1176.3-635.3-1182.1-631.1z"/>
	</g>
	<g class="st5">
		<path d="M-986.1-674.1c6.8,5.4,12.9,11.5,18.8,17.6c5.9,6.2,11.5,12.5,17.1,18.9c5.5,6.4,10.9,12.9,16.3,19.4s10.7,13,16.3,19.6
			c-7.7-4-14.5-9.5-20.9-15.3c-6.3-5.8-12.3-12-17.8-18.5c-5.6-6.5-10.9-13.2-15.8-20.1C-977.1-659.5-981.8-666.6-986.1-674.1z"/>
	</g>
	<g class="st5">
		<path d="M-994.1-611.6l18.1-15.5l17.9-15.4c6-5.1,12.2-10.2,18.7-14.9c1.6-1.2,3.3-2.3,5-3.4c1.7-1.1,3.5-2.1,5.3-3.1
			c1.8-0.9,3.6-1.9,5.6-2.6l1.4-0.5c0.5-0.2,1-0.4,1.5-0.5c1-0.2,2-0.5,3-0.7c-3.3,2.3-6.3,4.9-9.2,7.5c-0.7,0.6-1.4,1.3-2.1,2
			s-1.4,1.3-2.1,2l-4.3,4.1c-5.7,5.5-11.4,10.9-17.6,16.1c-6.1,5.2-12.5,10.1-19.4,14.4C-979.1-617.8-986.3-614-994.1-611.6z"/>
	</g>
	<g class="st5">
		<path d="M-1121.1-553.4c2.3-1.7,4.9-2.9,7.6-3.9c2.7-0.9,5.5-1.7,8.3-2.2c5.6-1.1,11.3-1.6,16.9-1.8c11.3-0.3,22.6,0.6,33.7,2.5
			s22.1,4.8,32.6,9c5.3,2.1,10.4,4.6,15.3,7.6c1.2,0.8,2.4,1.6,3.5,2.4l1.7,1.3c0.3,0.2,0.6,0.4,0.8,0.7l0.8,0.7
			c2.2,1.8,4.1,4,5.7,6.3c-4.5-3.4-9.4-5.8-14.4-7.8c-5.1-2-10.3-3.7-15.5-5.2c-10.5-2.9-21.2-5.2-32-7.1
			c-10.8-1.8-21.6-3.3-32.5-4.2c-5.4-0.4-10.9-0.7-16.4-0.6c-2.7,0-5.4,0.2-8.2,0.5c-1.3,0.2-2.7,0.3-4,0.7c-0.7,0.2-1.4,0.2-2,0.5
			C-1119.7-553.8-1120.4-553.6-1121.1-553.4z"/>
	</g>
</g>
<g>
	<polygon class="st3" points="1506.8,426.5 992,332.6 1083.2,202 1269.3,79.3 	"/>
</g>
<path class="st1" d="M823.8,866.4c-310.3,12.1-410.5-61.9-763.7-71.9c211.4-25.6,522.2,57.8,761.3-14.9"/>
<path class="st7" d="M636.4,372.2c44.4,55.3,124.3,98.1,201.8,96.6"/>
<path class="st8" d="M865.6,433.7c-71.4,7.9-172.5-19.4-229.2-61.4c44.6,56,131.3,99.6,204.3,96.5"/>
<path class="st7" d="M1489.2,268.7c0-0.1,0-0.2,0-0.2"/>
<path class="st9" d="M1701.4,521.1c-0.1,1-241.8-106-241.5-105c132.6,421.7,56.6,593.6-261.6,650.7
	c329.7,5.9,433.6-133.1,455.7-262.2"/>
<g>
	<g>
		<path class="st3" d="M1508.6,440.2c86.2,31.6,212,196.9,114.9,264.4c-68.5,54.7-45.4,120.2-89.5,181.1
			c118.8,6.6,187.1-134.9,195-252.4c35.8-257.4-98-569-459.8-554.1"/>
		<path d="M1508.6,440.2c10.7,3.7,20.9,9,30.6,14.9c9.7,6,18.9,12.7,27.7,19.9c17.5,14.5,33.5,31,47.5,48.9
			c14,18,26.3,37.5,35.3,58.7c2.2,5.3,4.3,10.7,6,16.2s3.2,11.1,4.3,16.8c2.3,11.4,3,23.2,1.5,35c-0.8,5.9-2.1,11.7-4.1,17.3
			c-2,5.6-4.7,11-7.9,16c-3.2,5-7,9.7-11.2,13.9l-3.2,3.1c-1.1,1-2.3,1.9-3.4,2.9s-2.3,1.8-3.4,2.7c-1.2,0.9-2.3,1.7-3.3,2.6
			c-4.1,3.4-8.3,7.1-12.1,11.1l-2.9,3l-2.7,3.1c-1.9,2-3.5,4.2-5.2,6.4c-6.7,8.7-12.1,18.2-16.5,28.3c-8.8,20.2-13,42.3-18.9,64.4
			c-2.9,11.1-6.4,22.2-10.9,32.9c-4.6,10.8-10.3,21.1-17.1,30.7l-4.2-8.8c14.1,0.7,28.2-0.7,41.7-4.5c13.5-3.7,26.4-9.8,38.1-17.5
			c11.8-7.7,22.5-17.2,32.1-27.7s18.2-22,25.8-34.1c15.2-24.3,26.6-51,35-78.6c8.3-27.6,13.7-56.1,15.6-84.9v-0.2v-0.2
			c9.5-68,7-137.8-7.5-204.9c-14.4-67.1-41.8-131.7-82.8-186.8c-20.5-27.5-44.6-52.4-71.5-73.7c-26.9-21.3-56.9-38.8-88.6-52.3
			c-31.7-13.6-65.2-22.8-99.3-28.5c-34.1-5.8-68.9-7.7-103.6-7c17.3-1,34.7-1.3,52.1-0.8s34.8,2,52,4.3
			c34.5,4.7,68.7,13.2,101.2,26.2c32.5,12.9,63.4,30.2,91.3,51.4c28,21.2,52.9,46.4,74.3,74.2c21.4,27.8,39.4,58.3,53.7,90.4
			c14.4,32,25.3,65.6,33,99.8c7.7,34.2,12,69.2,13.5,104.3c1.4,35.1-0.3,70.2-5,105v-0.5c-2,29.8-7.7,59.2-16.3,87.7
			c-8.7,28.5-20.6,56.1-36.6,81.5c-8,12.7-17,24.8-27.3,35.8s-21.8,21.1-34.6,29.3c-12.8,8.3-26.8,14.7-41.6,18.7
			c-14.8,4-30.2,5.4-45.4,4.5l-10.1-0.6l5.9-8.2c6.4-8.8,11.8-18.4,16.2-28.4c4.4-10.1,7.8-20.6,10.8-31.4
			c6-21.5,10.6-44.2,20.2-65.6c4.8-10.6,10.8-20.9,18.1-30c1.8-2.3,3.6-4.6,5.6-6.7l2.9-3.3l3.1-3.1c4.1-4.2,8.5-8,13.1-11.7
			c1.1-1,2.3-1.8,3.4-2.6c1.1-0.8,2.3-1.6,3.3-2.5s2.1-1.7,3.1-2.6l3-2.7c3.9-3.7,7.3-7.8,10.3-12.3c3-4.4,5.5-9.2,7.4-14.3
			c1.9-5,3.2-10.3,4-15.6c1.6-10.7,1.2-21.8-0.8-32.7c-1-5.4-2.2-10.8-3.8-16.2c-1.6-5.3-3.4-10.6-5.4-15.8
			c-8.3-20.8-19.8-40.3-33.2-58.3c-13.4-18.1-28.6-34.9-45.6-49.8c-4.2-3.7-8.6-7.3-13-10.8c-4.5-3.5-9-6.8-13.7-9.9
			C1529.1,449.9,1519.2,444.3,1508.6,440.2z"/>
	</g>
	<path class="st8" d="M1719.2,663.9c25.8-122.3,21.7-493.5-320.8-572.6c216.6,117.1,288.2,224.9,295.4,436.5
		c-7.2,235.9-67.7,161.6-97.1,258.4c-3.3,9.3-3.7,70.3-26.2,90.6C1672,852.5,1705.3,743.9,1719.2,663.9z"/>
</g>
<g>
	<g>
		<path class="st3" d="M1016.4,318.3c-231.5,97.5-173.6,263.6-278.6,302.2c341.3,125.3,710.3,53.9,774.8-194"/>
		<path d="M1016.1,317.7c-16.2,7-31.8,15.4-47.1,24.2c-7.6,4.4-15,9.5-22.3,14.5c-3.7,2.4-7.3,5-10.9,7.5c-3.5,2.6-7.1,5.2-10.6,7.9
			c-7,5.4-13.7,11.1-20.1,17.1c-6.4,6-12.7,12.2-18.6,18.7c-11.8,13.1-22.3,27.2-31.6,42.1s-17.3,30.6-24.6,46.7
			c-7.3,16-13.8,32.5-21,48.7c-3.6,8.1-7.4,16.2-11.7,24.1c-2.1,4-4.5,7.8-6.9,11.6c-2.5,3.8-5.1,7.5-7.9,11.1
			c-5.7,7.1-12.2,13.7-19.6,19.1c-7.4,5.5-15.7,9.7-24.2,13v-7.1c34.7,12.4,70.1,23.2,106,31.8c17.9,4.3,36,8.2,54.1,11.5
			s36.4,6.1,54.6,8.3c36.6,4.5,73.4,6.8,110.2,6.7c18.4-0.1,36.8-0.8,55.1-2.1c18.3-1.3,36.6-3.3,54.7-5.9
			c36.3-5.5,72.2-13.4,106.9-25c34.7-11.5,68.2-26.7,99.2-46.1c30.7-19.6,59-43.6,81.6-72.3l4.2-5.4l4-5.6c2.8-3.7,5.2-7.5,7.8-11.3
			c1.3-1.9,2.4-3.9,3.7-5.8c1.2-2,2.4-3.9,3.6-5.9l3.4-6l1.7-3c0.5-1,1-2,1.6-3.1c8.4-16.3,15.3-33.5,20.6-51.2l0,0
			c-4.1,18.1-8.9,36.2-16.6,53.2c-0.5,1.1-0.9,2.1-1.4,3.2l-1.5,3.1l-3.1,6.3c-1.1,2.1-2.2,4.1-3.3,6.2c-1.1,2-2.2,4.1-3.4,6.1
			c-2.5,4-4.8,8.1-7.4,11.9l-3.9,5.9l-4.1,5.7c-5.5,7.6-11.4,14.9-17.6,21.9c-3.2,3.4-6.3,6.9-9.6,10.3c-3.3,3.3-6.6,6.7-10.1,9.8
			c-13.7,12.9-28.5,24.5-44.1,35c-15.6,10.4-32,19.7-48.9,27.9c-16.9,8.2-34.3,15.3-52,21.5c-17.7,6.1-35.7,11.3-54,15.6l-13.7,3
			l-13.8,2.7l-13.8,2.4l-13.9,2.1c-18.5,2.6-37.1,4.4-55.8,5.5c-18.6,1.1-37.3,1.5-56,1.3c-37.3-0.4-74.5-3.2-111.4-8.3
			c-18.5-2.5-36.8-5.5-55.1-9.1s-36.4-7.7-54.5-12.2c-36.1-9.1-71.6-20.3-106.4-33.3l-9.6-3.5l9.6-3.6c8-3,15.7-6.8,22.5-11.8
			c6.9-4.9,13.1-10.9,18.5-17.6c10.9-13.3,18.8-29.1,26.2-45.1s14.2-32.4,21.8-48.4c7.6-16.1,15.9-31.9,25.6-46.8
			c9.6-15,20.6-29.1,32.7-42.2c6.1-6.5,12.5-12.7,19.1-18.7s13.5-11.6,20.6-17c3.5-2.7,7.2-5.3,10.8-7.8c3.7-2.5,7.3-5,11.1-7.4
			c7.4-4.8,15.1-9.3,22.9-13.6C983.7,332,999.7,324.5,1016.1,317.7L1016.1,317.7z"/>
	</g>
	<path class="st8" d="M1512.5,426.5c-168.6-23.7-206.2,272.1-763.8,193.9c291.8,102.4,684.1,75.1,763.2-194"/>
</g>
<g class="st4">
	<ellipse class="st10" cx="-1117.1" cy="777.7" rx="591" ry="123.8"/>
	<g class="st5">
		<path class="st0" d="M-686.8,713C-319.3,356.9-837,95.8-1074.4,263"/>
		<path d="M-687.1,712.7c13.3-14.4,26.7-28.6,38.9-43.9l4.7-5.6c1.6-1.9,3-3.9,4.5-5.8l8.9-11.6c5.6-8,11.4-15.8,16.5-24
			c2.6-4.1,5.4-8.1,7.7-12.3l3.7-6.3l1.8-3.1c0.6-1,1.2-2.1,1.8-3.2l6.8-12.9c2.1-4.3,4.1-8.8,6.2-13.1c0.5-1.1,1-2.2,1.5-3.3
			l1.3-3.4l2.7-6.7c1.9-4.4,3.4-9.1,5-13.6l1.2-3.4c0.4-1.1,0.8-2.3,1.1-3.4l2-7l1-3.5c0.3-1.2,0.7-2.3,1-3.5l1.6-7.1
			c4.3-18.8,6.4-38.2,5.7-57.5c0-1.2,0-2.4-0.1-3.6l-0.3-3.6l-0.6-7.2c-0.1-1.2-0.3-2.4-0.5-3.6l-0.5-3.6c-0.4-2.4-0.7-4.8-1.1-7.2
			l-1.6-7.1c-0.6-2.4-1-4.8-1.7-7.1l-2.1-7c-0.4-1.2-0.7-2.3-1.1-3.5l-1.3-3.4c-6.6-18.3-15.8-35.7-27.1-51.5
			c-1.4-2-2.9-3.9-4.4-5.8s-2.9-3.9-4.5-5.8l-4.8-5.5c-1.6-1.8-3.1-3.7-4.9-5.4l-5-5.3c-0.8-0.9-1.7-1.8-2.5-2.6l-2.6-2.5l-5.3-5
			l-1.3-1.3l-1.4-1.2l-2.8-2.4c-14.6-12.8-30.6-24-47.2-34s-34-18.7-51.9-26.1c-17.9-7.4-36.4-13.5-55.2-18.3l-14.1-3.3
			c-4.7-1-9.5-2-14.2-2.9l-7.2-1.2l-3.6-0.6c-1.2-0.2-2.4-0.4-3.6-0.6c-4.8-0.6-9.6-1.4-14.4-1.9c-38.4-4.6-77.6-4-115.8,3l-7.1,1.3
			c-2.4,0.5-4.7,1.1-7.1,1.6l-7.1,1.6l-7,1.9c-2.3,0.7-4.7,1.2-7,2l-6.9,2.3c-4.7,1.4-9.2,3.2-13.7,4.9c-9.1,3.5-18,7.5-26.7,11.8
			c-2.2,1-4.3,2.3-6.4,3.4l-6.4,3.5c-4.2,2.5-8.3,5.1-12.5,7.7l-0.5-0.7l6-4.3c2-1.4,4-2.9,6-4.2l6.2-3.9c2.1-1.3,4.1-2.7,6.3-3.8
			c8.5-4.9,17.3-9.4,26.4-13.3c4.5-1.9,9-3.9,13.7-5.6l6.9-2.6c2.3-0.8,4.7-1.5,7-2.3l7.1-2.2l7.1-1.9c2.4-0.6,4.8-1.3,7.2-1.9
			l7.2-1.6c38.7-8.4,78.7-9.7,118-5.3c2.5,0.2,4.9,0.6,7.4,0.9l7.3,1c1.2,0.2,2.4,0.4,3.7,0.6l3.7,0.6l7.3,1.3c4.9,0.9,9.7,2,14.5,3
			c4.8,1.1,9.6,2.4,14.4,3.6c19.1,5.1,37.8,11.6,56,19.4c18.2,7.8,35.7,16.9,52.4,27.6c16.7,10.6,32.3,22.8,46.7,36.2
			c14.4,13.4,27.5,28.4,38.7,44.5c11.2,16.2,20.5,33.7,27.3,52.2c6.9,18.4,11.4,37.9,12.9,57.6l0.4,7.4c0.1,1.2,0.2,2.5,0.2,3.7v3.7
			c0,5,0.1,9.9-0.4,14.9l-0.5,7.4c-0.1,1.2-0.2,2.5-0.4,3.7l-0.5,3.7l-1,7.4c-0.4,2.5-0.9,4.9-1.4,7.3
			c-3.9,19.5-10.3,38.4-18.5,56.4c-2.2,4.5-4.2,9-6.4,13.4l-7.1,13c-0.3,0.5-0.6,1.1-0.9,1.6l-1,1.6l-1.9,3.2l-3.9,6.3
			c-2.5,4.3-5.3,8.3-8.1,12.4c-5.4,8.3-11.5,16-17.4,23.9l-9.4,11.4c-1.6,1.9-3.1,3.8-4.8,5.6l-4.9,5.5l-4.9,5.5
			c-1.7,1.8-3.2,3.7-5,5.4l-10.3,10.5c-1.7,1.7-3.4,3.5-5.2,5.2l-5.4,5l-10.8,10L-687.1,712.7z"/>
	</g>
	<path class="st11" d="M-665,593.3c46.5-145,32-301.6-119.3-362.1c244.3,70.1,298.1,274.3,114,463.4"/>
	<polygon class="st12" points="-652,620.8 -696.6,724.4 -1208.2,621.8 -711.2,444.6 	"/>
	<g class="st5">
		<path class="st0" d="M-1204,742.5c-188.1,16.1-312.1-47.4-485.1-42.6c99-136.3,272-102.6,400.2-228.3"/>
		<path d="M-1204,742.9c-40.4,5-81.5,5.6-122.2,2.9l-7.6-0.5c-2.5-0.2-5.1-0.4-7.6-0.6l-7.6-0.7c-2.5-0.2-5.1-0.5-7.6-0.8l-7.6-0.8
			c-2.5-0.3-5.1-0.6-7.6-0.9l-7.6-0.9l-7.6-1l-7.6-1l-7.6-1.2l-7.6-1.2l-7.5-1.2c-5-0.8-10-1.7-15.1-2.6c-5-0.9-10-1.8-15-2.7
			l-59.9-11.7c-20-3.8-40-7.3-60.2-10l-15.1-1.9c-5.1-0.5-10.1-1.1-15.2-1.6c-5.1-0.4-10.1-0.9-15.2-1.3c-5.1-0.3-10.1-0.7-15.2-0.9
			s-10.1-0.4-15.2-0.5s-10.1-0.2-15.2-0.2l-15.2,0.1l-15.2,0.5l-4.9,0.2l2.9-3.9l8.8-11.8c3.1-3.8,6.3-7.6,9.5-11.3
			c0.8-1,1.6-1.8,2.5-2.7l2.6-2.7l5.1-5.3c0.8-0.9,1.7-1.7,2.6-2.6l2.7-2.5l5.4-5c0.9-0.9,1.9-1.6,2.8-2.4l2.9-2.4l5.7-4.7
			c3.9-3,7.9-5.9,11.9-8.8c4.1-2.7,8.2-5.5,12.4-8.1c4.2-2.5,8.4-5.1,12.7-7.5c17.2-9.7,35.1-17.8,53.3-25.1
			c4.6-1.8,9.1-3.6,13.7-5.3c4.6-1.7,9.2-3.4,13.8-5s9.2-3.3,13.8-4.8c4.6-1.6,9.2-3.1,13.9-4.7c18.5-6.1,36.9-12.3,55.2-18.8
			l6.8-2.5l6.8-2.6l6.8-2.6l6.7-2.7c2.2-0.9,4.5-1.8,6.7-2.7l6.7-2.9l6.7-2.9l6.6-3.1c17.5-8.2,34.6-17.5,50.8-28
			c4-2.7,8.1-5.3,12-8.2l5.9-4.3l3-2.1l2.8-2.3l5.7-4.5l2.8-2.3c0.5-0.4,1-0.8,1.4-1.1l1.4-1.2l11-9.6l0.6,0.6l-10.4,10.3l-1.3,1.3
			c-0.4,0.4-0.9,0.8-1.4,1.2l-2.7,2.4l-5.5,4.9l-2.7,2.4l-2.9,2.3l-5.7,4.6c-3.7,3.2-7.8,5.9-11.7,8.8
			c-15.9,11.5-32.8,21.5-50.4,30.3c-35,17.8-72.2,30.5-109,43.1c-9.2,3.2-18.4,6.3-27.6,9.5c-9.2,3.2-18.2,6.6-27.3,10.1
			c-18.1,6.9-35.8,14.7-52.7,23.9s-33,19.9-47.7,32.4c-14.7,12.4-28,26.4-39.7,41.8l-2-3.8h15.3l15.3,0.3c5.1,0.2,10.2,0.4,15.3,0.7
			l15.3,0.9c5.1,0.3,10.2,0.8,15.2,1.2l15.2,1.4c5.1,0.5,10.1,1.1,15.2,1.6l15.2,1.8c20.2,2.5,40.4,5.4,60.5,8.3
			c20.1,3,40.3,6.2,60.3,9.3l30.1,4.7l7.5,1.2l7.5,1.1l15.1,2.2l7.5,1.1l7.5,1c2.5,0.3,5,0.7,7.5,1l7.6,0.9c5,0.6,10.1,1.2,15.1,1.7
			c2.5,0.3,5,0.6,7.6,0.8l7.6,0.7c2.5,0.2,5,0.5,7.6,0.7l7.6,0.6l7.6,0.6l7.6,0.4l7.6,0.4l7.6,0.3l7.6,0.3c2.5,0.1,5.1,0.1,7.6,0.2
			c20.3,0.4,40.6,0.1,60.9-0.8L-1204,742.9z"/>
	</g>
	<g class="st5">
		<polygon class="st0" points="-1204.5,741.5 -1348.2,619.8 -1288.8,471.6 -1163.5,468.6 		"/>
	</g>
	<g class="st5">
		<path class="st2" d="M-696.6,724.4c-9.5,37.1-30.5,72.2-70.1,98.2c-49.1,38.8-300.6,93.1-428-29.3
			c-11.5-13.7-13.5-83.5-13.5-186.7"/>
		<path d="M-696.2,724.5c-1.9,10.2-4.9,20.2-8.8,29.8c-2,4.8-4.2,9.5-6.7,14.2c-2.5,4.6-5.2,9.1-8.1,13.4
			c-5.9,8.7-12.7,16.7-20.3,24c-7.6,7.3-15.8,13.9-24.6,19.6l0.3-0.2c-8,6.1-16.7,10.4-25.6,14.1c-8.8,3.8-17.9,6.8-27.1,9.5
			c-18.3,5.3-36.9,9.2-55.6,12.3c-37.4,6.2-75.3,9.5-113.3,9.2c-19-0.2-38-1.5-56.9-4.2s-37.6-7-55.8-12.8
			c-18.2-5.9-35.9-13.4-52.7-22.8c-16.7-9.6-32.3-21-46.2-34.5l-0.2-0.2l-0.1-0.1c-1.7-2.1-2.7-4.2-3.5-6.2s-1.5-4-2-6.1
			c-1.1-4-1.8-8-2.5-11.9c-1.2-7.9-2-15.8-2.6-23.7c-1.2-15.8-1.5-31.5-1.7-47.2c-0.1-15.7-0.1-31.4,0.2-47.2
			c0.1-7.9,0.4-15.7,0.6-23.6c0.2-7.9,0.5-15.7,0.8-23.5h0.8c0.3,7.8,0.6,15.7,0.9,23.5l0.9,23.5c0.6,15.7,1.1,31.4,1.9,47
			c0.7,15.6,1.7,31.3,3.1,46.8c0.8,7.7,1.7,15.5,3,23c0.7,3.8,1.4,7.5,2.5,11.1c0.5,1.8,1.1,3.5,1.8,5.1c0.7,1.6,1.5,3,2.3,4
			l-0.3-0.3c27,25.5,60.1,44.2,95.5,56.1c17.7,6,35.9,10.4,54.4,13.7c18.5,3.2,37.2,5.5,56,6.4c9.4,0.5,18.8,0.7,28.3,0.6
			c9.4-0.1,18.9-0.5,28.3-1.2c4.7-0.4,9.4-0.8,14.1-1.2c2.3-0.2,4.7-0.5,7-0.8s4.7-0.6,7-0.9c9.4-1.2,18.7-2.9,27.9-4.7
			c18.5-3.8,36.7-8.6,54.5-14.7c8.9-3,17.6-6.4,26.1-10.2c4.2-1.9,8.4-3.9,12.4-6.2c4-2.2,7.9-4.6,11.4-7.3l0.1-0.1l0.1-0.1
			c4.2-2.8,8.3-5.7,12.3-8.8s7.9-6.3,11.5-9.8c3.7-3.4,7.3-7,10.7-10.7c3.4-3.7,6.6-7.7,9.6-11.7s5.9-8.2,8.5-12.6
			c2.7-4.3,5.2-8.8,7.4-13.3c4.6-9.1,8.3-18.6,11.6-28.4L-696.2,724.5z"/>
	</g>
	<g class="st5">
		<path class="st3" d="M-932.1,252.6c-229.3-36.6-251.6,153.7-401.3,179.4c29.6,40,88.1,68,134.8,63.3"/>
		<path d="M-932.1,253c-19-1.8-38-3-56.9-2.4c-2.4,0-4.7,0.2-7.1,0.3l-3.5,0.2c-1.2,0.1-2.4,0.2-3.5,0.3c-2.3,0.2-4.7,0.3-7,0.6
			l-7,0.8c-9.3,1.2-18.6,2.8-27.7,5c-18.2,4.4-36,10.7-53,18.9c-17,8.1-33.1,18.3-48.1,30s-28.9,24.8-42.5,38.1
			c-13.6,13.3-27.1,26.9-41.6,39.5c-3.6,3.2-7.3,6.2-11.1,9.2s-7.7,5.9-11.6,8.7c-7.9,5.6-16.2,10.7-24.7,15.2
			c-8.6,4.5-17.5,8.5-26.8,11.7c-9.2,3.1-18.7,5.6-28.3,7.2l2.7-6.8c7.3,10.1,16.3,19,26,27c4.9,4,10,7.7,15.3,11.1
			c5.3,3.4,10.8,6.6,16.4,9.5c5.7,2.9,11.4,5.5,17.4,7.8c5.9,2.3,12,4.2,18.1,5.8c12.3,3.2,25.1,4.9,38,4.3l0.1,0.8
			c-12.8,2-26.1,1.3-38.9-1.1c-6.4-1.2-12.8-2.8-19-4.8c-6.2-2-12.4-4.4-18.3-7.1c-6-2.7-11.8-5.7-17.5-9.1
			c-5.6-3.4-11.1-7.1-16.4-11.1c-10.5-8-20-17.4-28.1-28l-4.2-5.6l6.9-1.2c9.2-1.6,18.2-3.8,27.1-6.8c8.8-2.9,17.5-6.5,25.8-10.7
			c8.4-4.2,16.5-8.9,24.3-14.2c3.9-2.6,7.8-5.3,11.6-8.1c1.9-1.4,3.8-2.8,5.7-4.3c1.9-1.4,3.8-2.9,5.6-4.3
			c14.9-11.7,29.2-24.3,43.4-37s28.3-25.6,43.2-37.7c14.8-12.1,30.2-23.6,47.1-33.1c16.8-9.5,35.1-16.6,54-20.7
			c9.4-2.1,19-3.7,28.6-4.6l7.2-0.6c2.4-0.2,4.8-0.2,7.2-0.4c2.4-0.1,4.8-0.1,7.2-0.1c2.4,0,4.8-0.1,7.2,0c19.2,0.4,38.3,2.8,57,6.9
			L-932.1,253z"/>
	</g>
	<g class="st5">
		<path class="st3" d="M-1446.5,96.6C-1675.9,60-1698.1,250.3-1847.9,276c29.6,40,88.1,68,134.8,63.3"/>
		<path d="M-1446.6,97c-19-1.8-38-3-56.9-2.4c-2.4,0-4.7,0.2-7.1,0.3l-3.5,0.2c-1.2,0.1-2.4,0.2-3.5,0.3c-2.3,0.2-4.7,0.3-7,0.6
			l-7,0.8c-9.3,1.2-18.6,2.8-27.7,5c-18.2,4.4-36,10.7-53,18.9c-17,8.1-33.1,18.3-48.1,30c-15,11.7-28.9,24.8-42.5,38.1
			s-27.1,26.9-41.6,39.5c-3.6,3.2-7.3,6.2-11.1,9.2c-3.8,3-7.7,5.9-11.6,8.7c-7.9,5.6-16.2,10.7-24.7,15.2
			c-8.6,4.5-17.5,8.5-26.8,11.7c-9.2,3.1-18.7,5.6-28.3,7.2l2.7-6.8c7.3,10.1,16.3,19,26,27c4.9,4,10,7.7,15.3,11.1
			c5.3,3.4,10.8,6.6,16.4,9.5c5.7,2.9,11.4,5.5,17.4,7.8c5.9,2.3,12,4.2,18.1,5.8c12.3,3.2,25.1,4.9,38,4.3l0.1,0.8
			c-12.8,2-26.1,1.3-38.9-1.1c-6.4-1.2-12.8-2.8-19-4.8s-12.4-4.4-18.3-7.1c-6-2.7-11.8-5.7-17.5-9.1c-5.6-3.4-11.1-7.1-16.4-11.1
			c-10.5-8-20-17.4-28.1-28l-4.2-5.6l6.9-1.2c9.2-1.6,18.2-3.8,27.1-6.8c8.8-2.9,17.5-6.5,25.8-10.7c8.4-4.2,16.5-8.9,24.3-14.2
			c3.9-2.6,7.8-5.3,11.6-8.1c1.9-1.4,3.8-2.8,5.7-4.3c1.9-1.4,3.8-2.9,5.6-4.3c14.9-11.7,29.2-24.3,43.4-37s28.3-25.6,43.2-37.7
			c14.8-12.1,30.2-23.6,47.1-33.1c16.8-9.5,35.1-16.6,54-20.7c9.4-2.1,19-3.7,28.6-4.6l7.2-0.6c2.4-0.2,4.8-0.2,7.2-0.4
			c2.4-0.1,4.8-0.1,7.2-0.1s4.8-0.1,7.2,0c19.2,0.4,38.3,2.8,57,6.9L-1446.6,97z"/>
	</g>
	<g class="st5">
		<path d="M-1183.8,637.9c7.5,5.2,14.4,11.2,21,17.5c6.6,6.3,12.8,12.8,18.8,19.6s11.6,13.8,17,21.1s10.5,14.8,15,22.8
			c-7.1-5.9-13.5-12.2-19.8-18.7c-6.3-6.5-12.3-13.1-18.2-19.9c-5.9-6.8-11.7-13.7-17.4-20.7
			C-1173.1,652.5-1178.6,645.4-1183.8,637.9z"/>
	</g>
	<g class="st5">
		<path d="M-1182.1,706.6c3.2-6.4,7.4-12.1,11.9-17.4c4.6-5.3,9.7-10.2,15.1-14.6c5.5-4.4,11.4-8.4,17.7-11.6
			c1.6-0.8,3.2-1.6,4.8-2.3s3.3-1.3,5-1.9c3.4-1.1,6.9-1.9,10.4-2.2c-6,3.8-11.5,7.6-16.9,11.7c-5.4,4.1-10.7,8.3-16,12.5
			l-15.8,12.9C-1171.1,698-1176.3,702.4-1182.1,706.6z"/>
	</g>
	<g class="st5">
		<path d="M-986.1,663.6c6.8,5.4,12.8,11.5,18.7,17.7c5.8,6.2,11.4,12.6,16.9,19.1l16.3,19.3c5.4,6.4,11,12.8,16.6,19.4
			c-7.7-4-14.7-9.2-21.1-15c-6.4-5.7-12.4-12-17.9-18.5s-10.7-13.3-15.6-20.3C-977.2,678.3-981.8,671.2-986.1,663.6z"/>
	</g>
	<g class="st5">
		<path d="M-994.1,726.1l18.1-15.5l17.9-15.4c6-5.1,12.2-10.2,18.7-14.9c1.6-1.2,3.3-2.3,5-3.4c1.7-1.1,3.5-2.1,5.3-3.1
			c1.8-0.9,3.6-1.9,5.6-2.6l1.4-0.5c0.5-0.2,1-0.4,1.5-0.5c1-0.2,2-0.5,3-0.7c-3.3,2.3-6.3,4.9-9.2,7.5c-0.7,0.6-1.4,1.3-2.1,2
			s-1.4,1.3-2.1,2l-4.3,4.1c-5.7,5.5-11.4,10.9-17.6,16.1c-6.1,5.2-12.5,10.1-19.4,14.4C-979.1,720-986.3,723.7-994.1,726.1z"/>
	</g>
	<g class="st5">
		<path d="M-1121.1,784.4c2.3-1.7,4.9-2.9,7.6-3.9c2.7-0.9,5.5-1.7,8.3-2.2c5.6-1.1,11.3-1.6,16.9-1.8c11.3-0.3,22.6,0.6,33.7,2.5
			s22.1,4.8,32.6,9c5.3,2.1,10.4,4.6,15.3,7.6c1.2,0.8,2.4,1.6,3.5,2.4l1.7,1.3c0.3,0.2,0.6,0.4,0.8,0.7l0.8,0.7
			c2.2,1.8,4.1,4,5.7,6.3c-4.5-3.4-9.4-5.8-14.4-7.8c-5.1-2-10.3-3.7-15.5-5.2c-10.5-2.9-21.2-5.2-32-7.1
			c-10.8-1.8-21.6-3.3-32.5-4.2c-5.4-0.4-10.9-0.7-16.4-0.6c-2.7,0-5.4,0.2-8.2,0.5c-1.3,0.2-2.7,0.3-4,0.7c-0.7,0.2-1.4,0.2-2,0.5
			C-1119.7,784-1120.4,784.2-1121.1,784.4z"/>
	</g>
	<g class="st5">
		<polygon class="st3" points="-784.3,468.6 -1104.6,410.2 -1047.8,328.9 -932.1,252.6 		"/>
	</g>
	<path class="st11" d="M-1209.2,742.3c-193,7.5-255.3-38.5-475.1-44.7c131.5-15.9,324.8,36,473.6-9.3"/>
	<path class="st13" d="M-1325.8,434.9c27.6,34.4,77.3,61,125.5,60.1"/>
	<path class="st14" d="M-1183.2,473.1c-44.4,4.9-107.3-12.1-142.6-38.2c27.8,34.8,81.7,62,127.1,60"/>
	<path class="st13" d="M-594.8,268.1c0-0.1,0-0.2,0-0.2"/>
	<path class="st15" d="M-663.2,527.5c0,0.6-150.4-65.9-150.3-65.3C-731,724.5-778.3,831.5-976.3,867
		c205.1,3.7,269.8-82.8,283.5-163.1"/>
	<g class="st5">
		<g>
			<path class="st3" d="M-783.2,477.1c53.6,19.6,131.9,122.5,71.5,164.5c-42.6,34-28.2,74.8-55.7,112.7
				c73.9,4.1,116.4-83.9,121.3-157c22.3-160.1-60.9-354-286-344.7"/>
			<path d="M-783.2,477.1c6.7,2.3,13,5.6,19,9.3c6,3.7,11.8,7.9,17.2,12.4c10.9,9,20.8,19.3,29.6,30.4c8.7,11.2,16.4,23.3,22,36.5
				c1.4,3.3,2.7,6.7,3.7,10.1c1.1,3.4,2,6.9,2.7,10.5c1.4,7.1,1.8,14.5,0.9,21.7c-0.5,3.6-1.3,7.3-2.5,10.8s-2.9,6.9-4.9,10
				s-4.4,6-7,8.6l-2,1.9c-0.7,0.6-1.4,1.2-2.1,1.8s-1.4,1.1-2.1,1.7c-0.7,0.5-1.5,1.1-2.1,1.6c-2.6,2.1-5.1,4.4-7.5,6.9l-1.8,1.8
				l-1.7,1.9c-1.2,1.3-2.2,2.6-3.2,4c-4.2,5.4-7.5,11.3-10.3,17.6c-5.5,12.6-8.1,26.3-11.8,40.1c-1.8,6.9-4,13.8-6.8,20.5
				s-6.4,13.1-10.7,19.1l-2.6-5.5c8.8,0.5,17.5-0.4,25.9-2.8c8.4-2.3,16.4-6.1,23.7-10.9c7.3-4.8,14-10.7,20-17.2s11.3-13.7,16-21.2
				c9.4-15.1,16.6-31.7,21.8-48.9c5.2-17.2,8.5-34.9,9.7-52.8v-0.1v-0.1c5.9-42.3,4.3-85.7-4.7-127.5c-8.9-41.7-26-82-51.5-116.2
				c-12.8-17.1-27.7-32.6-44.5-45.8c-16.8-13.3-35.4-24.2-55.1-32.5c-19.7-8.4-40.6-14.2-61.8-17.7c-21.2-3.6-42.9-4.8-64.4-4.4
				c10.8-0.6,21.6-0.8,32.4-0.5s21.6,1.3,32.4,2.7c21.5,2.9,42.7,8.2,62.9,16.3c20.2,8,39.4,18.8,56.8,32s32.9,28.9,46.2,46.2
				c13.3,17.3,24.5,36.3,33.4,56.2c9,19.9,15.7,40.8,20.5,62.1c4.8,21.3,7.5,43.1,8.4,64.9c0.9,21.8-0.2,43.7-3.1,65.3v-0.3
				c-1.3,18.5-4.8,36.8-10.2,54.5c-5.4,17.7-12.8,34.9-22.8,50.7c-5,7.9-10.6,15.4-17,22.3c-6.4,6.9-13.6,13.1-21.5,18.2
				c-7.9,5.1-16.7,9.1-25.9,11.6c-9.2,2.5-18.8,3.4-28.2,2.8l-6.3-0.4l3.7-5.1c4-5.5,7.3-11.4,10.1-17.7c2.7-6.3,4.9-12.8,6.7-19.5
				c3.8-13.4,6.6-27.5,12.6-40.8c3-6.6,6.7-13,11.2-18.7c1.1-1.4,2.3-2.9,3.5-4.2l1.8-2l1.9-1.9c2.6-2.6,5.3-5,8.2-7.3
				c0.7-0.6,1.4-1.1,2.1-1.6s1.4-1,2.1-1.5c0.6-0.5,1.3-1,1.9-1.6l1.9-1.7c2.4-2.3,4.6-4.9,6.4-7.6c1.9-2.8,3.4-5.7,4.6-8.9
				c1.2-3.1,2-6.4,2.5-9.7c1-6.7,0.7-13.6-0.5-20.3c-0.6-3.4-1.4-6.7-2.4-10.1c-1-3.3-2.1-6.6-3.4-9.8c-5.1-12.9-12.3-25-20.6-36.3
				c-8.4-11.2-17.8-21.7-28.4-31c-2.6-2.3-5.3-4.6-8.1-6.7c-2.8-2.2-5.6-4.2-8.5-6.2C-770.5,483.2-776.6,479.7-783.2,477.1z"/>
		</g>
		<path class="st8" d="M-652.2,616.3c16-76.1,13.5-307-199.6-356.2C-717,332.9-672.5,400-668,531.6c-4.5,146.8-64,135.7-82.3,195.9
			c-2.1,5.8-6.2,17.2-10.7,23.4C-693.2,748.4-660.4,670.9-652.2,616.3z"/>
	</g>
	<g class="st5">
		<path class="st3" d="M-1875.1,384c-144,60.7-108,164-173.3,188c212.3,78,441.9,33.5,482-120.7"/>
		<path d="M-1875,384.4c-10.1,4.4-20,9.2-29.5,14.6c-4.8,2.7-9.5,5.6-14,8.6c-2.3,1.5-4.5,3.1-6.8,4.7c-2.2,1.6-4.4,3.2-6.6,4.9
			c-4.3,3.4-8.5,6.9-12.5,10.6s-7.9,7.6-11.5,11.7c-7.3,8.1-13.9,16.9-19.7,26.2c-5.8,9.3-10.8,19-15.3,29s-8.6,20.2-13.1,30.3
			c-2.2,5.1-4.6,10.1-7.3,15c-1.3,2.5-2.8,4.9-4.3,7.2c-1.5,2.4-3.2,4.7-4.9,6.9c-3.5,4.4-7.6,8.5-12.2,11.9
			c-4.6,3.4-9.7,6.1-15.1,8.1v-4.4c21.6,7.7,43.6,14.4,65.9,19.8c11.2,2.7,22.4,5.1,33.6,7.1c11.3,2,22.6,3.8,34,5.2
			c22.7,2.8,45.7,4.2,68.5,4.1c11.4-0.1,22.9-0.5,34.3-1.3c11.4-0.8,22.8-2,34-3.7c22.6-3.4,44.9-8.3,66.5-15.5
			c21.6-7.1,42.4-16.6,61.7-28.7c19.1-12.2,36.7-27.1,50.8-45l2.6-3.4l2.5-3.5c1.7-2.3,3.2-4.7,4.8-7.1c0.8-1.2,1.5-2.4,2.3-3.6
			c0.7-1.2,1.5-2.4,2.2-3.7l2.1-3.7l1-1.9c0.3-0.6,0.6-1.3,1-1.9c5.2-10.2,9.5-20.9,12.8-31.9l0.8,0.2c-2.5,11.3-6.3,22.3-11.1,32.9
			c-0.3,0.7-0.6,1.3-0.9,2l-1,2l-1.9,3.9c-0.7,1.3-1.4,2.6-2.1,3.8c-0.7,1.3-1.4,2.6-2.1,3.8c-1.5,2.5-3,5-4.6,7.4l-2.4,3.6
			l-2.6,3.5c-3.4,4.7-7.1,9.2-11,13.6c-2,2.1-3.9,4.3-6,6.4c-2.1,2.1-4.1,4.2-6.3,6.1c-8.5,8-17.7,15.2-27.4,21.8
			c-9.7,6.5-19.9,12.3-30.4,17.3c-10.5,5.1-21.3,9.5-32.3,13.4c-11,3.8-22.2,7.1-33.6,9.7l-8.5,1.9l-8.6,1.7l-8.6,1.5l-8.6,1.3
			c-11.5,1.6-23.1,2.7-34.7,3.4c-11.6,0.7-23.2,0.9-34.8,0.8c-23.2-0.3-46.4-2-69.3-5.1c-11.5-1.6-22.9-3.4-34.3-5.6
			c-11.4-2.2-22.7-4.8-33.9-7.6c-22.4-5.6-44.5-12.7-66.2-20.7l-5.9-2.2l5.9-2.2c5-1.8,9.8-4.2,14-7.3c4.3-3.1,8.1-6.8,11.5-10.9
			c6.8-8.3,11.7-18.1,16.3-28c4.6-10,8.8-20.1,13.5-30.1s9.9-19.8,15.9-29.1c6-9.3,12.8-18.1,20.4-26.2c3.8-4.1,7.7-7.9,11.9-11.6
			c4.1-3.7,8.4-7.2,12.8-10.5c2.2-1.7,4.5-3.3,6.7-4.9c2.3-1.5,4.6-3.1,6.9-4.6c4.6-3,9.4-5.8,14.2-8.5c9.7-5.3,19.7-10,29.8-14.2
			L-1875,384.4z"/>
	</g>
	<g class="st5">
		<g>
			<path class="st3" d="M-1089.4,401.3c-144,60.7-108,164-173.3,188c212.3,78,441.9,33.5,482-120.7"/>
			<path d="M-1089.2,401.7c-10.1,4.4-20,9.2-29.5,14.6c-4.8,2.7-9.5,5.6-14,8.6c-2.3,1.5-4.5,3.1-6.8,4.7c-2.2,1.6-4.4,3.2-6.6,4.9
				c-4.3,3.4-8.5,6.9-12.5,10.6s-7.9,7.6-11.5,11.7c-7.3,8.1-13.9,16.9-19.7,26.2c-5.8,9.3-10.8,19-15.3,29s-8.6,20.2-13.1,30.3
				c-2.2,5.1-4.6,10.1-7.3,15c-1.3,2.5-2.8,4.9-4.3,7.2c-1.5,2.4-3.2,4.7-4.9,6.9c-3.5,4.4-7.6,8.5-12.2,11.9
				c-4.6,3.4-9.7,6.1-15.1,8.1V587c21.6,7.7,43.6,14.4,65.9,19.8c11.2,2.7,22.4,5.1,33.6,7.1c11.3,2,22.6,3.8,34,5.2
				c22.7,2.8,45.7,4.2,68.5,4.1c11.4-0.1,22.9-0.5,34.3-1.3s22.8-2,34-3.7c22.6-3.4,44.9-8.3,66.5-15.5
				c21.6-7.1,42.4-16.6,61.7-28.7c19.1-12.2,36.7-27.1,50.8-45l2.6-3.4l2.5-3.5c1.7-2.3,3.2-4.7,4.8-7.1c0.8-1.2,1.5-2.4,2.3-3.6
				c0.7-1.2,1.5-2.4,2.2-3.7l2.1-3.7l1-1.9c0.3-0.6,0.6-1.3,1-1.9c5.2-10.2,9.5-20.9,12.8-31.9l0.8,0.2
				c-2.5,11.3-6.3,22.3-11.1,32.9c-0.3,0.7-0.6,1.3-0.9,2l-1,2l-1.9,3.9c-0.7,1.3-1.4,2.6-2.1,3.8c-0.7,1.3-1.4,2.6-2.1,3.8
				c-1.5,2.5-3,5-4.6,7.4l-2.4,3.6l-2.6,3.5c-3.4,4.7-7.1,9.2-11,13.6c-2,2.1-3.9,4.3-6,6.4c-2.1,2.1-4.1,4.2-6.3,6.1
				c-8.5,8-17.7,15.2-27.4,21.8c-9.7,6.5-19.9,12.3-30.4,17.3c-10.5,5.1-21.3,9.5-32.3,13.4c-11,3.8-22.2,7.1-33.6,9.7l-8.5,1.9
				l-8.6,1.7l-8.6,1.5l-8.6,1.3c-11.5,1.6-23.1,2.7-34.7,3.4s-23.2,0.9-34.8,0.8c-23.2-0.3-46.4-2-69.3-5.1
				c-11.5-1.6-22.9-3.4-34.3-5.6c-11.4-2.2-22.7-4.8-33.9-7.6c-22.4-5.6-44.5-12.7-66.2-20.7l-5.9-2.2l5.9-2.2c5-1.8,9.8-4.2,14-7.3
				c4.3-3.1,8.1-6.8,11.5-10.9c6.8-8.3,11.7-18.1,16.3-28c4.6-10,8.8-20.1,13.5-30.1c4.7-10,9.9-19.8,15.9-29.1
				c6-9.3,12.8-18.1,20.4-26.2c3.8-4.1,7.7-7.9,11.9-11.6c4.1-3.7,8.4-7.2,12.8-10.5c2.2-1.7,4.5-3.3,6.7-4.9
				c2.3-1.5,4.6-3.1,6.9-4.6c4.6-3,9.4-5.8,14.2-8.5c9.7-5.3,19.7-10,29.8-14.2L-1089.2,401.7z"/>
		</g>
		<path class="st8" d="M-780.7,468.6c-104.9-14.8-128.3,169.2-475.1,120.6c181.5,63.7,425.5,46.7,474.8-120.7"/>
	</g>
</g>
</svg>
