<?xml version="1.0" encoding="utf-8"?>
<!-- Generator: Adobe Illustrator 22.1.0, SVG Export Plug-In . SVG Version: 6.00 Build 0)  -->
<svg version="1.1" id="Layer_1" xmlns="http://www.w3.org/2000/svg" xmlns:xlink="http://www.w3.org/1999/xlink" x="0px" y="0px"
	 viewBox="0 0 64 64" style="enable-background:new 0 0 64 64;" xml:space="preserve">
<style type="text/css">
	.st0{clip-path:url(#SVGID_2_);fill:url(#SVGID_3_);}
</style>
<g>
	<defs>
		<path id="SVGID_1_" d="M43.9,55.3c-4.1,2.2-8.3,3-13.4,3c-12.3,0-22.7-9-22.7-23.4c0-15.5,10.7-28.8,27.4-28.8
			C48.2,6.1,57,15.2,57,27.8c0,11.2-6.3,17.8-13.4,17.8c-3,0-5.8-2-5.6-6.6h-0.3c-2.6,4.4-6.1,6.6-10.6,6.6c-4.4,0-8.1-3.5-8.1-9.4
			c0-9.3,7.3-17.8,17.8-17.8c3.2,0,6.1,0.7,8,1.6l-2.6,13.6c-1.1,5.7-0.2,8.3,2.3,8.4c3.8,0.1,8.1-5,8.1-13.7
			c0-10.9-6.5-18.7-18.2-18.7c-12.2,0-22.5,9.7-22.5,24.9c0,12.5,8.2,20.2,19.3,20.2c4.3,0,8.3-0.9,11.3-2.6L43.9,55.3z M39.8,22.9
			c-0.8-0.2-2-0.5-3.7-0.5c-6.6,0-11.9,6.2-11.9,13.5c0,3.3,1.7,5.7,4.9,5.7c4.4,0,8.3-5.6,9.2-10.2L39.8,22.9z"/>
	</defs>
	<clipPath id="SVGID_2_">
		<use xlink:href="#SVGID_1_"  style="overflow:visible;"/>
	</clipPath>
	<linearGradient id="SVGID_3_" gradientUnits="userSpaceOnUse" x1="-9.094947e-13" y1="-9.094947e-13" x2="64" y2="64">
		<stop  offset="0" style="stop-color:#51FF8F"/>
		<stop  offset="1" style="stop-color:#008D83"/>
	</linearGradient>
	<rect class="st0" width="64" height="64"/>
</g>
</svg>
