<?xml version="1.0" encoding="utf-8"?>
<!-- Generator: Adobe Illustrator 22.1.0, SVG Export Plug-In . SVG Version: 6.00 Build 0)  -->
<svg version="1.1" id="Layer_1" xmlns="http://www.w3.org/2000/svg" xmlns:xlink="http://www.w3.org/1999/xlink" x="0px" y="0px"
	 viewBox="0 0 64 64" style="enable-background:new 0 0 64 64;" xml:space="preserve">
<style type="text/css">
	.st0{clip-path:url(#SVGID_2_);fill:url(#SVGID_3_);}
</style>
<g>
	<defs>
		<path id="SVGID_1_" d="M63.3,59.7l-0.5-2.3C58.5,36.3,48,16.8,32.8,1.5l0,0c-0.3-0.6-1.2-0.6-1.6,0l0,0
			C15.7,16.8,5.4,36.6,1.9,58.1l-0.3,1.6C1.4,60.3,1.8,61,2.4,61h23.7c0.5,0,0.9-0.4,0.9-0.9V40.9c0-0.5,0.4-0.9,0.9-0.9h9.3
			c0.5,0,0.9,0.4,0.9,0.9v19.3c0,0.5,0.4,0.9,0.9,0.9h23.7C63.2,61,63.6,60.3,63.3,59.7z M22.1,52h-7.3c-0.5,0-0.9-0.4-0.9-0.9V39.9
			c0-0.5,0.4-0.9,0.9-0.9h7.3c0.5,0,0.9,0.4,0.9,0.9v11.3C23,51.6,22.6,52,22.1,52z M41.9,39h7.3c0.5,0,0.9,0.4,0.9,0.9v11.3
			c0,0.5-0.4,0.9-0.9,0.9h-7.3c-0.5,0-0.9-0.4-0.9-0.9V39.9C41,39.4,41.4,39,41.9,39z"/>
	</defs>
	<clipPath id="SVGID_2_">
		<use xlink:href="#SVGID_1_"  style="overflow:visible;"/>
	</clipPath>
	<linearGradient id="SVGID_3_" gradientUnits="userSpaceOnUse" x1="-2.156412e-09" y1="2.154593e-09" x2="64" y2="64">
		<stop  offset="0" style="stop-color:#51FF8F"/>
		<stop  offset="1" style="stop-color:#008D83"/>
	</linearGradient>
	<rect class="st0" width="64" height="64"/>
</g>
</svg>
