<?xml version="1.0" encoding="utf-8"?>
<!-- Generator: Adobe Illustrator 22.1.0, SVG Export Plug-In . SVG Version: 6.00 Build 0)  -->
<svg version="1.1" id="Layer_1" xmlns="http://www.w3.org/2000/svg" xmlns:xlink="http://www.w3.org/1999/xlink" x="0px" y="0px"
	 viewBox="0 0 64 64" style="enable-background:new 0 0 64 64;" xml:space="preserve">
<style type="text/css">
	.st0{clip-path:url(#SVGID_2_);fill:url(#SVGID_3_);}
	.st1{clip-path:url(#SVGID_5_);fill:url(#SVGID_6_);}
</style>
<g>
	<defs>
		<path id="SVGID_1_" d="M44.5,2C33.7,2,25,10.7,25,21.5C25,32.3,33.7,41,44.5,41S64,32.3,64,21.5C64,10.7,55.3,2,44.5,2z
			 M52.1,16.1c-2.4,0-4.3-1.9-4.3-4.3c0-2.4,1.9-4.3,4.3-4.3s4.3,1.9,4.3,4.3C56.4,14.1,54.5,16.1,52.1,16.1z"/>
	</defs>
	<clipPath id="SVGID_2_">
		<use xlink:href="#SVGID_1_"  style="overflow:visible;"/>
	</clipPath>
	<linearGradient id="SVGID_3_" gradientUnits="userSpaceOnUse" x1="-4.8333" y1="1.5" x2="63.5" y2="69.8333">
		<stop  offset="0" style="stop-color:#51FF8F"/>
		<stop  offset="1" style="stop-color:#008D83"/>
	</linearGradient>
	<rect x="-5.3" y="2" class="st0" width="69.3" height="67.3"/>
</g>
<g>
	<defs>
		<polyline id="SVGID_4_" points="1.2,60 1.2,48.9 32.2,18 37.8,34.9 37.8,39.1 35,39.1 35,43.3 29.3,43.3 29.3,46.1 26.5,46.1 
			26.5,49.4 23.6,49.5 23.6,51.8 19.5,51.8 19.5,54.6 15.3,54.6 15.3,57.3 11,57.3 11,60 7,60 		"/>
	</defs>
	<clipPath id="SVGID_5_">
		<use xlink:href="#SVGID_4_"  style="overflow:visible;"/>
	</clipPath>
	<linearGradient id="SVGID_6_" gradientUnits="userSpaceOnUse" x1="0.5" y1="1.5" x2="63.5" y2="64.5">
		<stop  offset="0" style="stop-color:#51FF8F"/>
		<stop  offset="1" style="stop-color:#008D83"/>
	</linearGradient>
	<rect y="2" class="st1" width="64" height="62"/>
</g>
</svg>
