<?xml version="1.0" encoding="utf-8"?>
<!-- Generator: Adobe Illustrator 22.1.0, SVG Export Plug-In . SVG Version: 6.00 Build 0)  -->
<svg version="1.1" id="Layer_1" xmlns="http://www.w3.org/2000/svg" xmlns:xlink="http://www.w3.org/1999/xlink" x="0px" y="0px"
	 viewBox="0 0 64 64" style="enable-background:new 0 0 64 64;" xml:space="preserve">
<style type="text/css">
	.st0{clip-path:url(#SVGID_2_);fill:url(#SVGID_3_);}
	.st1{clip-path:url(#SVGID_5_);fill:url(#SVGID_6_);}
	.st2{clip-path:url(#SVGID_8_);fill:url(#SVGID_9_);}
	.st3{clip-path:url(#SVGID_11_);fill:url(#SVGID_12_);}
</style>
<g>
	<defs>
		<path id="SVGID_1_" d="M20.7,33.3c-0.2-3.1-0.4-6.8-0.3-9.5h-0.1c-0.8,2.6-1.7,5.3-2.8,8.4l-3.9,10.7h-2.2L7.9,32.4
			c-1-3.1-1.9-5.9-2.5-8.6H5.3c-0.1,2.7-0.2,6.4-0.4,9.7L4.3,43H1.6l1.5-22h3.6l3.8,10.6c0.9,2.7,1.7,5.1,2.2,7.4h0.1
			c0.6-2.2,1.3-4.6,2.3-7.4L19,21h3.6L24,43h-2.8L20.7,33.3z"/>
	</defs>
	<clipPath id="SVGID_2_">
		<use xlink:href="#SVGID_1_"  style="overflow:visible;"/>
	</clipPath>
	<linearGradient id="SVGID_3_" gradientUnits="userSpaceOnUse" x1="-9.094947e-13" y1="-9.094947e-13" x2="64" y2="64">
		<stop  offset="0" style="stop-color:#51FF8F"/>
		<stop  offset="1" style="stop-color:#008D83"/>
	</linearGradient>
	<rect class="st0" width="64" height="64"/>
</g>
<g>
	<defs>
		<path id="SVGID_4_" d="M31.6,36.1L29.4,43h-2.9l7.5-22h3.4l7.5,22h-3l-2.3-6.9H31.6z M38.9,33.9l-2.2-6.3c-0.5-1.4-0.8-2.7-1.1-4
			h-0.1c-0.3,1.3-0.7,2.6-1.1,4l-2.2,6.4H38.9z"/>
	</defs>
	<clipPath id="SVGID_5_">
		<use xlink:href="#SVGID_4_"  style="overflow:visible;"/>
	</clipPath>
	<linearGradient id="SVGID_6_" gradientUnits="userSpaceOnUse" x1="-9.094947e-13" y1="-9.094947e-13" x2="64" y2="64">
		<stop  offset="0" style="stop-color:#51FF8F"/>
		<stop  offset="1" style="stop-color:#008D83"/>
	</linearGradient>
	<rect class="st1" width="64" height="64"/>
</g>
<g>
	<defs>
		<path id="SVGID_7_" d="M59.7,43l-2.8-4.9c-1.1-1.9-1.9-3.1-2.5-4.3h-0.1c-0.6,1.3-1.2,2.4-2.4,4.4L49.2,43H46l6.7-11.1L46.2,21
			h3.3l2.9,5.2c0.8,1.4,1.4,2.5,2,3.7h0.1c0.6-1.3,1.2-2.3,2-3.7l3-5.2h3.3l-6.7,10.7L63,43H59.7z"/>
	</defs>
	<clipPath id="SVGID_8_">
		<use xlink:href="#SVGID_7_"  style="overflow:visible;"/>
	</clipPath>
	<linearGradient id="SVGID_9_" gradientUnits="userSpaceOnUse" x1="-9.094947e-13" y1="-9.094947e-13" x2="64" y2="64">
		<stop  offset="0" style="stop-color:#51FF8F"/>
		<stop  offset="1" style="stop-color:#008D83"/>
	</linearGradient>
	<rect class="st2" width="64" height="64"/>
</g>
<g>
	<defs>
		<polygon id="SVGID_10_" points="47,19.2 36,8.2 25,19.2 22,16.3 36,2.3 50,16.3 		"/>
	</defs>
	<clipPath id="SVGID_11_">
		<use xlink:href="#SVGID_10_"  style="overflow:visible;"/>
	</clipPath>
	<linearGradient id="SVGID_12_" gradientUnits="userSpaceOnUse" x1="-9.094947e-13" y1="-9.094947e-13" x2="64" y2="64">
		<stop  offset="0" style="stop-color:#51FF8F"/>
		<stop  offset="1" style="stop-color:#008D83"/>
	</linearGradient>
	<rect class="st3" width="64" height="64"/>
</g>
</svg>
