<?xml version="1.0" encoding="utf-8"?>
<!-- Generator: Adobe Illustrator 22.1.0, SVG Export Plug-In . SVG Version: 6.00 Build 0)  -->
<svg version="1.1" id="Layer_1" xmlns="http://www.w3.org/2000/svg" xmlns:xlink="http://www.w3.org/1999/xlink" x="0px" y="0px"
	 viewBox="0 0 64 64" style="enable-background:new 0 0 64 64;" xml:space="preserve">
<style type="text/css">
	.st0{clip-path:url(#SVGID_2_);fill:url(#SVGID_3_);}
</style>
<g>
	<defs>
		<path id="SVGID_1_" d="M30.9,55.1c-4-0.4-7.3-1.5-10.1-3.5c-2.7-2-4.7-4.7-5.9-8.2l5.1-2.6c0.5,2.5,1.8,4.6,3.8,6.3
			c2,1.7,4.4,2.8,7.1,3.3V34.4c-3-0.6-5.4-1.3-7.4-2.1c-1.9-0.8-3.6-1.9-4.8-3.4c-1.3-1.5-1.9-3.5-1.9-6.1c0-2.3,0.6-4.4,1.7-6.3
			c1.1-1.9,2.8-3.4,4.9-4.6c2.1-1.2,4.6-1.9,7.5-2.2V2.9h4.7v7c3.4,0.3,6.2,1.2,8.4,2.7s4.1,3.8,5.7,6.8l-4.5,3.5
			c-1.1-2.7-2.5-4.6-3.9-5.9c-1.5-1.3-3.4-2.1-5.8-2.4v16.2c3,0.6,5.4,1.3,7.4,2.1c1.9,0.7,3.6,1.9,4.9,3.5c1.3,1.6,2,3.6,2,6.3
			c0,3.5-1.3,6.4-3.9,8.6c-2.6,2.2-6,3.5-10.4,3.9V62h-4.7V55.1z M30.9,14.5c-2.9,0.3-5.2,1.1-6.7,2.5c-1.5,1.4-2.3,3.2-2.3,5.5
			c0,2.1,0.8,3.6,2.3,4.7c1.5,1.1,3.7,1.9,6.6,2.6V14.5z M44.7,43c0-2.1-0.8-3.7-2.4-4.8c-1.6-1.1-3.8-2-6.7-2.7v15.1
			C41.7,50,44.7,47.5,44.7,43z"/>
	</defs>
	<clipPath id="SVGID_2_">
		<use xlink:href="#SVGID_1_"  style="overflow:visible;"/>
	</clipPath>
	<linearGradient id="SVGID_3_" gradientUnits="userSpaceOnUse" x1="-2.156412e-09" y1="2.154593e-09" x2="64" y2="64">
		<stop  offset="0" style="stop-color:#51FF8F"/>
		<stop  offset="1" style="stop-color:#008D83"/>
	</linearGradient>
	<rect class="st0" width="64" height="64"/>
</g>
</svg>
